<svg xmlns="http://www.w3.org/2000/svg" width="862.667" height="300" viewBox="0 0 647 225"><path d="M332 18.1c-47.8 3.8-95.6 14.5-135 30.1-12.6 5-36.7 16.5-37.6 17.9-.3.5 3.7-.9 8.8-3 40.9-17.1 93.5-28.7 149.3-33.2 19.3-1.5 74.1-.6 91.5 1.6 63.9 7.9 111.3 25 145 52.2 4.1 3.4 8.8 7.9 10.5 10.1l2.9 3.9 15.1.6c18.5.7 31.5 3.7 41.4 9.6 7.7 4.6 10.4 7.2 12.8 12.6l1.8 4 .3-3.4c1.1-11-11.9-23.4-31.8-30.3-7-2.4-21.7-4.8-29.6-4.8h-6.2l-6.1-6c-14.8-14.5-38.8-29.3-63-39-30.2-12-66.8-20.1-103.5-23-14.9-1.2-51.4-1.1-66.6.1"/><path d="M377.3 47c-7.5 3.3-10.8 11.7-7.8 19.5q3.15 8.4 12.6 9.3c5.8.5 10.1-1 13.4-5 7-8.3 4.2-19.2-6-23.9-5-2.3-7-2.3-12.2.1M47.3 61.5C27.5 65.8 13.1 79.8 8.5 99.1c-1.9 8-1.9 13.5 0 22.4 3.9 18.3 16.5 31 35.5 35.6 8 2 25.8 1.7 35.8-.5 9.4-2.2 8.9-1 6.8-15.6-.9-6.5-1.6-8.4-2.7-8.1-9.3 2.6-12.3 3.1-18.5 3.1-13.6 0-23.1-5.2-27.4-15.2-1.9-4.3-2.2-6.5-1.8-12.8.7-11.8 5.2-18.6 15.3-23.2 6.9-3.1 20.6-3.1 28.4 0 3 1.2 5.6 2.1 5.6 1.9.1-.1.9-5 1.7-10.9l1.4-10.7-3.7-1.5c-9-3.6-26.3-4.6-37.6-2.1M232.9 61.7l-4.6.4 4.5 15.2c2.4 8.4 8.6 29.6 13.7 47.2l9.2 32 13.1.3 13 .3 5.2-21.8c2.9-12 6-25 6.9-28.8l1.7-7 7.1 28.5 7.1 28.5h25.7l6.1-22c3.4-12.1 9.4-33.2 13.4-46.8 3.9-13.7 7-25 6.8-25.2s-6.2-.5-13.3-.6l-12.8-.1-6.3 31.3c-3.5 17.3-6.4 31.8-6.4 32.4-.1.5-1.9-6.7-4.1-16-2.1-9.4-5.5-23.9-7.5-32.3L307.8 62h-11.4c-6.3 0-11.4.3-11.4.6s-2.2 10.5-5 22.7c-2.7 12.2-5.7 25.8-6.6 30.2-2.2 10.4-3 11.7-3.8 6.9-.4-2.2-3.3-15.2-6.3-28.9-3.1-13.8-5.8-26.5-6.1-28.3-.4-3.1-.6-3.2-5.1-3.2-2.5 0-6.8-.2-9.6-.4-2.7-.2-7.1-.2-9.6.1M118.5 83.7c-1.6.2-6.3 1-10.2 1.9l-7.3 1.5V107l5.3-2c13-4.8 26.6-4.5 30.7.7 3.5 4.5 2.8 5-8.2 5.5-14.4.7-20.9 2.9-27.5 9.4-5.8 5.7-6.8 8.8-6.1 18.3.9 12.2 9.5 19.2 24 19.3 7.9.1 12.9-1.5 18.5-5.8l3.3-2.5v7.1h23.1l-.3-26.8-.3-26.8-3-5.9c-3.5-6.9-8.6-10.6-18-13-5.4-1.4-16.5-1.8-24-.8M140 128c0 3.3-2.6 8.6-5.1 10.4-5.7 4-13.8 2.8-15.9-2.4-2.7-6.5 1.9-9.9 13.3-10 7.1 0 7.7.2 7.7 2M214.5 84.2c-4.3 1.5-9.4 5.5-11.6 9.2l-1.9 3.1V85h-25v72h26v-19.8c0-17.3.2-20.2 1.9-23.2 2.8-5.3 7.3-7.5 15.4-7.4h6.8l-.3-11.5-.3-11.6-4-.2c-2.2-.1-5.3.3-7 .9M429.3 84c-13.9 2.9-21.4 10.9-21.4 22.5 0 10.1 5.8 16.4 19.7 21.3 12.3 4.4 13.9 5.3 13.9 8.2 0 2.1-.7 2.7-3.9 3.5-4.4 1.1-17.5-1.3-25-4.5l-4.6-1.9v20.8l5.3 1.6c2.8.9 8.9 2 13.4 2.6 23.6 2.7 39.6-7 39.6-24.1 0-11.1-6.6-17.5-23.3-22.4-11.6-3.4-14-7.4-5.9-9.6 5.2-1.4 18.7 1.1 22.7 4.3.7.5 1.4.8 1.7.6.2-.3.5-4.9.6-10.4l.2-9.9-4.9-1.3c-6.4-1.7-22.7-2.5-28.1-1.3M504.2 84c-11.7 2.5-20.8 9.5-25.9 19.8-2.6 5.2-2.8 6.6-2.8 17.2 0 10.3.3 12.1 2.6 17.1 5.2 11.1 15.2 17.7 30.2 19.9 9.1 1.4 21.5.3 30.7-2.7l5-1.6v-19.3l-7 2.3c-15.2 5.1-29.9 3.6-34.7-3.6-1.3-1.8-2-3.7-1.7-4.2s11.1-.9 24-.9H548v-4.3c-.1-13.5-4.7-26.7-11.2-32.2-7.7-6.6-21.8-9.8-32.6-7.5m13.2 17.4c4.1 1.7 6.6 5.1 6.6 8.8v2.8h-11.4c-6.7 0-11.7-.4-12.1-1-1.2-2 2.9-8.5 6.5-10.2 4.2-2.2 6-2.2 10.4-.4M370 121v36h26V85h-26zM176.4 177.5c-.4.9-.3 4.9.1 9l.7 7.5h4.6c2.9 0 5.9-.8 7.9-2 6-3.6 5.2-12.6-1.3-15-4.1-1.6-11.4-1.2-12 .5m9.7 3.5c3.7 2 1.9 9-2.3 9-1.5 0-1.8-.9-1.8-5 0-5.2.7-5.8 4.1-4M205 185c0 8.9 0 9 2.5 9 2.1 0 2.5-.5 2.5-3 0-1.7.4-3 1-3 .5 0 1.6 1.3 2.5 3 1.1 2.1 2.3 3 4 3 2.9 0 3.1-1 .9-5.2-1.1-2.2-1.3-3.3-.5-4.1 1.8-1.8 1.2-5.5-1.1-7.1-1.3-.9-4.3-1.6-7-1.6H205zm8.5-2.9c0 .7-.8 1.5-1.7 1.7-1.8.3-2.5-1.8-1.1-3.2 1-1 2.8-.1 2.8 1.5M231 184.9c0 9.1 0 9.1 2.5 9.1h2.6l-.3-8.8c-.3-8.2-.4-8.7-2.5-9-2.2-.3-2.3-.1-2.3 8.7M246.5 178c4.6 14.6 5.1 15.5 8.1 15.8 2.8.3 3 0 6.1-8.8l3.1-9.1-2.6.3c-2.2.2-3 1.1-4 4.3-2.3 7.2-2.4 7.2-4.1 1.5-1.5-4.8-2-5.5-4.5-5.8s-2.7-.1-2.1 1.8M274 185v9h6.5c5.8 0 6.5-.2 6.5-1.9 0-1.6-.8-2-3.7-2.3-4.9-.4-5.7-2.8-.9-2.8 2.9 0 3.6-.4 3.6-2s-.7-2-3.5-2c-2.4 0-3.5-.5-3.5-1.5 0-1.1 1.1-1.5 4.1-1.5 3.3 0 4-.3 3.7-1.8-.3-1.4-1.6-1.8-6.6-2l-6.2-.3zM312.1 177.9c-3.4 3.4-2.4 6.5 2.5 8.6 4.6 1.9 4.5 3.9-.2 3.2-3.2-.5-3.5-.4-3.2 1.6.2 1.8 1.1 2.3 4.1 2.5 8.7.7 11.9-6.5 4.5-10.1-4.7-2.3-4.9-3.9-.5-3.5 2.6.2 3.2 0 3.2-1.7 0-3-7.6-3.4-10.4-.6M335.6 181.2c-1.1 9.8-.8 12.8 1.4 12.8 1.4 0 2.1-.9 2.5-3.8.4-2 .8-4.1.9-4.6.1-.6.8 1.1 1.5 3.7 1.9 6.6 4.4 6.4 6.8-.6l1.8-5.2.3 5.2c.3 5 .5 5.3 2.9 5.3 2.6 0 2.6 0 1.9-6.1-.3-3.4-.6-7.5-.6-9.1 0-2.7-.3-2.9-3.2-2.6-2.8.3-3.3.9-4.9 5.3-1 3-1.9 4.4-2.2 3.5-.3-.8-1.1-3.2-1.7-5.3-1-3.1-1.6-3.7-3.9-3.7-2.6 0-2.9.3-3.5 5.2M369.2 184.9l-3.1 9.1h2.4c1.4 0 2.9-.9 3.5-2s1.9-2 3-2 2.4.9 3 2c.6 1.2 2.1 2 3.6 2 2.8 0 2.7-.9-1-11.5-1.9-5.5-2.4-6-5.2-6.3-3.2-.3-3.2-.3-6.2 8.7m6.8-.9c0 1.1-.4 2-1 2-.5 0-1-.9-1-2s.5-2 1-2c.6 0 1 .9 1 2M394.9 176.4c-.2.2-.3 4.3-.1 9.1.3 8.2.5 8.6 2.5 8.3 1.6-.2 2.3-1.1 2.5-3.1.4-3.6 2.1-3.4 3.5.3.9 2.3 1.7 3 3.9 3 3.3 0 3.4-.5.7-4.9-1.9-3.1-1.9-3.4-.4-5.1 3.5-3.9-.9-8-8.4-8-2.1 0-4 .2-4.2.4m8.1 5.6c0 1.1-.7 2-1.5 2s-1.5-.9-1.5-2 .7-2 1.5-2 1.5.9 1.5 2M419 177.9c0 1.3.8 2.1 2.3 2.3 2 .3 2.2.9 2.5 7 .3 6.5.4 6.8 2.7 6.8 2.4 0 2.5-.3 2.5-6.4 0-5.9.2-6.5 2.3-6.8 1.4-.2 2.3-1.1 2.5-2.6.3-2.1 0-2.2-7.2-2.2-6.8 0-7.6.2-7.6 1.9M444 185v9h6c5.3 0 6-.2 6-2 0-1.6-.7-2-3.5-2-2.4 0-3.5-.5-3.5-1.5q0-1.5 3-1.5c2.3 0 3-.4 3-2s-.7-2-3-2c-4 0-3.8-1.8.3-2.2 2.4-.2 3.3-.8 3.5-2.6.3-2.1 0-2.2-5.7-2.2H444zM467 184.9c0 9 0 9.1 2.4 9.1 1.9 0 2.5-.6 2.8-2.7.4-3.7 2.3-3.9 3.8-.3 1 2.4 1.9 3 4.1 3h2.9l-2-4c-1.9-3.7-1.9-4.2-.5-5.6 3.9-3.9.6-7.6-7.4-8.2l-6.1-.4zm8.8-2.6c.2 1.2-.3 1.7-1.7 1.7-1.2 0-2.1-.6-2.1-1.3 0-3.1 3.2-3.4 3.8-.4"/></svg>