<svg xmlns="http://www.w3.org/2000/svg" width="808" height="294.667" viewBox="0 0 606 221"><path d="M151.5 12.1c-25.9 4.7-42.9 8.1-43.9 8.7-.5.3 1.8 1.5 5 2.7 3.3 1.2 8.7 3.6 12 5.3 3.4 1.7 6.3 3 6.5 2.8s9.2-2.1 19.9-4.1c30.1-5.7 38.5-4.3 49.8 8 8 8.7 10.3 18.2 7.6 31.3-.5 2.2-.3 2.3 6.8 2l7.3-.3.9-7.8c1.1-9.3-.1-15.8-4.6-24.9-3.7-7.3-13-17-20.5-21-11.9-6.5-22.5-7.1-46.8-2.7M76.5 29.6c-1.1.2-4.5.9-7.5 1.5-7.4 1.4-22.3 8.8-28.8 14.2C28.4 55.1 19.1 69.5 15.3 84c-2.1 8-2.3 26.2-.4 34 1.9 8 8.1 20.6 13.5 27.7 5.2 6.9 17.5 16.7 25.8 20.6 9.8 4.6 17.3 6.1 30.8 6.1 10.3.1 13.8-.4 20-2.3 24.4-7.6 42.2-25.8 49-50.3 2.5-9 2.7-24.8.4-35.1-6.7-30.7-34.7-54-66.4-55.2-5.2-.2-10.4-.2-11.5.1m21.8 17.9c19.1 5 35.2 21.1 40.2 40.1 1.9 7.3 1.9 20.2 0 27.4-7.6 28.5-36.3 46.6-64.5 40.6-11.2-2.4-19.3-6.8-28.1-15.6C34.4 128.6 30 118 30 101.3c0-24.8 15.6-45.6 40-53.4 6.9-2.2 20.5-2.4 28.3-.4"/><path d="M74.3 56.5c-2.9.8-6.8 2.1-8.8 3L61.8 61l3 3.7c3.9 4.9 14 14.8 14.5 14.2.7-.8 3.7-17.4 3.7-20.7 0-3.7-.7-3.8-8.7-1.7M87 58.1c0 4.5 3.1 20.9 4 20.9.4 0 4.5-3.9 9-8.6l8.3-8.7-2.4-1.3c-3.1-1.7-10.4-4.1-15.1-4.9-3.7-.6-3.8-.5-3.8 2.6M53.1 67.8c-8 8-8.1 8.5-1.1 11.6 10.2 4.6 17 6.7 17 5.2 0-1.3-6.8-18.1-8.3-20.4-1.3-2-2.6-1.4-7.6 3.6M109.3 64.3c-1.5 1.9-9.4 20.9-8.9 21.4.4.5 12.3-3.7 18.9-6.7l4.7-2.1-3.1-4.3c-2.7-3.8-5.7-6.6-9.5-8.9-.7-.4-1.6-.1-2.1.6M42.2 83.7c-1.1 2.7-2.5 7.2-3 10.1-.8 4.5-.7 5.5.6 5.9 1.6.7 19.6-2.3 21.9-3.5 1-.6-.8-2.9-7.1-9-4.7-4.5-9-8.2-9.5-8.2-.4 0-1.8 2.1-2.9 4.7M115.6 87.1c-4.8 4.5-8.4 8.5-7.9 8.9.8.8 18.1 4 21.6 4 1.8 0 1.9-.5 1.3-4.8-.8-6.1-3.3-13.7-5-15.1-1-.8-3.4.8-10 7M76.9 89.3c-6.4 4.3-8.6 12.1-5 18.7 5.4 10.3 20.6 10.7 25.7.8 2-3.9 2-10.7 0-14.6-3.6-6.9-14-9.4-20.7-4.9M91 95.5c7.3 7.8-3.4 19.3-11.4 12.2-4-3.4-4.3-7.7-1.1-11.5 3.5-4.2 9-4.5 12.5-.7"/><path d="M81.8 97.1c-2.2 1.3-2.4 6.2-.2 8.3 2.1 2.1 4.7 2 6.7-.2 4.5-4.9-.8-11.5-6.5-8.1M39 106.1c0 4.1 2.7 13.8 4.5 16.3 1.3 1.8 1.7 1.6 7.2-3.2 8.1-7 12.6-11.9 11.6-12.5-1.2-.7-10.8-2.5-17.5-3.3l-5.8-.6zM115.8 104.8c-4.9.8-8.8 1.8-8.8 2.2 0 1 17 17 18.1 17 1.2 0 5-10.9 5.6-16.2l.6-4.8-3.4.1c-1.9.1-7.3.8-12.1 1.7M60 120.4c-4.7 1.8-9.8 3.9-11.5 4.8l-3 1.6 7.3 7.3 7.3 7.4 2-4.5c2-4.2 7.9-19.1 7.9-19.7s-1.6-.1-10 3.1M100 117.7c.2 2.5 8.7 21.7 9.8 22.1 1.5.5 14.2-11.8 14.2-13.8 0-.7-.3-1.1-.6-.7-.4.3-2.5-.3-4.8-1.5-3.3-1.7-17-6.8-18.3-6.8-.2 0-.3.3-.3.7M70.6 132.2c-4.2 4.6-7.6 8.8-7.6 9.4 0 1.2 10.6 5 16.3 5.8 3 .4 3.7.2 3.7-1.2 0-3.8-3.4-22.2-4.1-22.2-.4 0-4.1 3.7-8.3 8.2M88.3 135.2l-1.9 11.3 3.5.3c4.1.4 17.1-3.6 17.1-5.2 0-1.3-14.8-17.6-16-17.6-.4 0-1.6 5.1-2.7 11.2M156.3 37.2l-15.3 3 6.5 7c7.3 7.9 13.1 18.8 16.7 31.3 3.3 11.5 3.3 33.5 0 44.8-3.1 11-9.2 21.9-17.9 32.6l-2.8 3.4 2.5-.5c1.4-.3 10.2-2.2 19.5-4.1 25.6-5.4 30.4-7.5 39.9-17.7 6.6-7.2 10-13.5 12.1-22.2 2.6-11 2.7-10.8-5.9-10.8h-7.3l-.6 5c-.8 6.3-3.5 12.6-7.6 17.3-5.8 6.6-22.2 12.9-20.7 7.9.8-2.5 13.3-78.6 14.1-85.7.6-5.3.4-6.3-1.6-8.9-2.8-3.5-7.6-5.6-12.6-5.5-2.1 0-10.7 1.4-19 3.1M506.6 37.2C495 40.4 489 55.7 493.5 70.6c2 6.9 5.2 10.8 15.8 19.4 10.9 8.9 13 12.3 12.4 19.9-.4 5.8-2.2 8.1-6.4 8.1-4.3 0-6.3-3.3-6.3-10.5V101h-17v8.2c.1 16.6 7.4 23.8 23.9 23.8 8.9 0 15.9-3.2 19.8-9.1 2.5-3.8 2.8-5.3 3.2-13.8.5-15.2-1.3-18.7-16.5-31.6-10.9-9.2-12.4-11.4-12.4-18.2 0-6 1.7-8.3 6-8.3 4.1 0 6 3.2 6 10.2V68h16v-8.8c0-11.2-2.3-16.5-8.9-20.1-5.1-2.8-16.1-3.7-22.5-1.9M250.5 39.2c-.5 1.6-12.5 88-12.5 90.2 0 1.3 1.4 1.6 8.4 1.6h8.4l.7-6.8c.9-9.6.6-9.2 7.8-9.2h6.4l.7 8 .7 8h9c4.9 0 8.9-.2 8.9-.4s-2.9-20.8-6.5-45.9-6.5-45.8-6.5-46.1-5.6-.6-12.5-.6c-9.2 0-12.7.3-13 1.2m16.7 59c-.2.5-2.3.8-4.8.8h-4.5l.5-3.3c.3-1.7 1.3-9.3 2.1-16.7.9-7.4 1.9-14.6 2.2-16 .4-1.4 1.5 5.3 2.8 16 1.1 10.2 1.9 18.8 1.7 19.2M304 84.5V131h18v-18c0-10.4.4-18 .9-18 1 0 2.3 4 7.2 23.2l3.2 12.8h9.4c9.2 0 9.4 0 8.7-2.2-2.6-8.4-9.4-33.6-9.4-35.1 0-1 1.3-3 3-4.4 4.7-3.9 6.4-11.2 5.8-25.4-.4-9.9-.9-12.3-2.9-15.9-4.8-8.5-8.9-9.9-29.6-10H304zM331 56c1.7 1.7 2 3.3 2 11 0 10.5-1.4 13-7.5 13H322V54h3.5c2.2 0 4.3.8 5.5 2M367.5 40.2c.9 4.1 14.3 75.2 15.6 83l1.3 7.8h14.5l.7-3.8c2-11.7 7.5-40.7 7.8-40.9.4-.4 4 19 6.5 34.2l1.7 10 6.8.3c3.8.2 7.3-.1 7.7-.5s4.2-20.2 8.4-43.8c4.1-23.7 7.8-44.2 8.1-45.8l.6-2.7h-8.6c-8.1 0-8.6.1-9.1 2.2-.8 3.9-6.5 45.2-6.6 48.3l-.1 3-.9-3c-.4-1.7-2.2-12.7-3.9-24.5-4.2-28.9-3-26-10.5-26h-6.3l-.6 3.2c-.3 1.8-1.7 12.1-3.1 22.8-3.9 30.5-3.5 29.7-6.1 12-1.3-8.5-3.1-20.6-4-26.8L385.7 38h-9.3c-9.3 0-9.4 0-8.9 2.2M459 84.5V131h18V38h-18zM552 84.5V131h40v-16h-22V91h15V75h-15V54h21V38h-39zM275.3 147c-2.5 1-4.3 3.9-3.6 5.8.3.7 2.3 2.2 4.5 3.3 2.9 1.5 3.7 2.4 3 3.1-.8.8-2 .7-4.2-.2-3.8-1.6-4.4-1.1-2.4 1.8 1.8 2.7 7.5 3 9.9.6 2.5-2.6 1.4-5.7-2.7-7.7-3.9-1.9-5-3.7-2.3-3.7.8 0 2.4.5 3.5 1.2 3.2 2 3.7-.2.7-2.8-3.1-2.6-3.2-2.7-6.4-1.4M295 155c0 7.5.1 8 2.1 8 1.8 0 2-.5 1.6-2.7-.9-4.6.6-6 1.8-1.7 1.5 5.5 3.9 5.6 5.8.2l1.5-4.3.1 4.2c.1 3.6.4 4.3 2.1 4.3 1.8 0 2-.7 2-8.1v-8l-2.7.3c-2.1.2-3 1.1-3.7 3.3-.5 1.6-1.1 3.7-1.4 4.5-.3.9-1.1-.5-1.9-3.3-1.3-4.2-1.7-4.7-4.4-4.7H295zM325.6 154.2c-1.4 4-2.6 7.6-2.6 8 0 1.4 3.1.8 3.6-.7.4-.9 1.9-1.5 3.5-1.5 1.7 0 3.2.6 3.5 1.5.7 1.6 4.4 2.1 4.4.6 0-.6-1.2-4.2-2.6-8-2.2-5.9-3-7.1-4.9-7.1s-2.7 1.2-4.9 7.2m6.4 1.5c0 .7-.7 1.3-1.5 1.3-1.6 0-1.9-.9-.9-3.5.5-1.3.8-1.4 1.5-.3.5.7.9 1.9.9 2.5M349 155c0 7.3.2 8 2 8 1.1 0 1.9-.3 1.9-.8-.4-2.3.2-5.2 1.2-5.2.5 0 1.5 1.3 2 3 .8 2.3 1.7 3 3.6 3 2.5 0 2.5 0 .8-2.6-1.4-2.1-1.5-3.1-.6-5.1 2.6-5.7.4-8.3-6.8-8.3H349zm7.8-3.3c-.5 2.6-3.8 2.9-3.8.4 0-1.5.6-2.1 2.1-2.1 1.4 0 1.9.5 1.7 1.7M371 148.5c0 .9.9 1.5 2.5 1.5 2.4 0 2.5.2 2.5 6.5 0 5.8.2 6.5 2 6.5s2-.7 2-6.1c0-5.2.3-6.2 1.9-6.6 1.1-.3 2.2-1.1 2.5-1.9.4-1.1-.9-1.4-6.4-1.4-5.6 0-7 .3-7 1.5M408 155v8h4.4c6.1 0 9.6-2.9 9.6-8s-3.5-8-9.6-8H408zm7.7-4.2c1.2.8 1.6 2.4 1.4 5.9-.1 1.8-.7 2.3-2.6 2.3-2.2 0-2.5-.4-2.5-3.8 0-4.9 1-6.1 3.7-4.4M433 155c0 7.3.2 8 2 8 1.6 0 2-.7 2-3 0-1.7.4-3 1-3 .5 0 1.6 1.3 2.5 3 .9 1.8 2.3 3 3.5 3 2.4 0 2.4.1.4-3.9-1.5-3-1.5-3.4 0-5 .9-1 1.6-2.3 1.6-2.9 0-2.1-4.4-4.2-8.7-4.2H433zm7.8-2.7c.2 1-.3 1.7-1.2 1.7-1.8 0-2.9-1.6-2.1-3.1.9-1.4 2.9-.6 3.3 1.4M457 155c0 7.3.2 8 2 8s2-.7 2-8-.2-8-2-8-2 .7-2 8M474 155c2.3 7.3 2.7 8 4.8 7.8 2-.3 2.8-1.6 4.9-7.6 1.4-4 2.3-7.6 2-7.9-1.5-1.4-3.5.9-4.6 5.1-1.1 4.5-3.1 6.3-3.1 2.9 0-3.8-2.4-8.3-4.5-8.3s-2.1 0 .5 8M497 155c0 7.3.2 8 2 8s2-.7 2-8-.2-8-2-8-2 .7-2 8M513 155c0 7.5.1 8 2.1 8 1.9 0 2.1-.4 1.6-4-.3-2.2-.1-4 .4-4s1.8 1.8 2.9 4c1.3 2.6 2.7 4 4 4 1.8 0 2-.7 2-8 0-6.4-.3-8-1.5-8-1.1 0-1.5 1.2-1.5 4.7v4.8l-2.7-4.8c-2-3.5-3.2-4.7-5-4.7-2.2 0-2.3.3-2.3 8M540 149.7c-1.7 2.2-2.1 3.7-1.7 6.8.7 4.7 2.8 6.5 7.6 6.5s6.1-1 6.7-5.2c.6-3.4.5-3.6-2.7-4.1-4.3-.6-5.7.6-2.9 2.6 2.5 1.7 1.9 3.7-1.1 3.7-2.8 0-4.6-4.3-3.1-7.5 1.3-2.7 2.7-3 6.6-1.5 2 .7 2.6.6 2.6-.3 0-2.3-2.3-3.7-6.1-3.7-2.9 0-4.3.6-5.9 2.7"/></svg>