<svg xmlns="http://www.w3.org/2000/svg" xmlns:xlink="http://www.w3.org/1999/xlink" version="1.1" x="0px" y="0px" viewBox="0 0 100 125" enable-background="new 0 0 100 100" xml:space="preserve"><path fill-rule="evenodd" clip-rule="evenodd" d="M31.473,60.027c0.019,3.37-2.764,6.032-6.15,5.895  c-3.058-0.124-5.684-2.841-5.606-6.088c0.075-3.12,2.65-5.995,6.458-5.692C28.903,54.358,31.505,56.722,31.473,60.027z   M25.158,58.554c0.192-0.039,0.375-0.14,0.476-0.087c0.408,0.217,0.558-0.069,0.751-0.318c0.096-0.124,0.22-0.228,0.334-0.337  c0.247-0.235,0.391-0.523,0.428-0.859c0.046-0.424,0.08-0.849,0.121-1.273c0.022-0.235,0.085-0.474,0.061-0.704  c-0.016-0.15-0.124-0.364-0.246-0.414c-0.258-0.104-0.55-0.141-0.832-0.163c-0.347-0.027-0.699-0.032-1.046-0.008  c-0.344,0.023-0.688,0.081-1.025,0.151c-0.216,0.045-0.349,0.163-0.316,0.438c0.064,0.543,0.067,1.093,0.134,1.635  c0.038,0.309,0.084,0.654,0.249,0.901C24.508,57.91,24.873,58.238,25.158,58.554z M24.377,59.217  c-0.233-0.406-0.428-0.799-0.674-1.155c-0.127-0.186-0.323-0.357-0.526-0.449c-0.631-0.288-1.286-0.525-1.922-0.805  c-0.213-0.094-0.319,0-0.413,0.146c-0.543,0.846-0.836,1.771-0.873,2.775c-0.005,0.154,0.011,0.274,0.218,0.319  c0.507,0.111,1.011,0.245,1.509,0.394c0.618,0.184,1.199,0.172,1.759-0.193c0.185-0.12,0.412-0.177,0.64-0.271  C24.092,59.694,23.992,59.356,24.377,59.217z M27.065,59.945c0.261,0.127,0.493,0.251,0.734,0.356  c0.349,0.152,0.683,0.356,1.098,0.251c0.726-0.185,1.457-0.349,2.182-0.536c0.061-0.016,0.136-0.146,0.13-0.218  c-0.028-0.37-0.022-0.759-0.137-1.104c-0.192-0.583-0.457-1.143-0.711-1.703c-0.119-0.263-0.329-0.258-0.575-0.144  c-0.343,0.161-0.71,0.273-1.049,0.442c-0.393,0.196-0.825,0.369-1.131,0.665c-0.313,0.303-0.498,0.741-0.731,1.124  c-0.023,0.038-0.014,0.136,0.017,0.159C27.142,59.438,27.215,59.676,27.065,59.945z M26.103,61.376  c-0.025,0.312-0.002,0.609-0.081,0.878c-0.118,0.398-0.085,0.777,0.1,1.117c0.32,0.587,0.689,1.146,1.041,1.716  c0.112,0.181,0.261,0.303,0.49,0.206c0.896-0.38,1.677-0.914,2.29-1.684c0.136-0.171,0.149-0.313,0.011-0.472  c-0.483-0.552-0.968-1.104-1.455-1.651c-0.24-0.27-0.566-0.337-0.905-0.389c-0.277-0.042-0.549-0.119-0.838-0.184  C26.724,61.27,26.468,61.4,26.103,61.376z M25.106,61.813c0.027-0.011,0.054-0.021,0.081-0.031c-0.064-0.132-0.1-0.348-0.197-0.38  c-0.235-0.079-0.451-0.134-0.536-0.402c-0.009-0.029-0.106-0.053-0.156-0.044c-0.35,0.06-0.706,0.101-1.043,0.201  c-0.402,0.12-0.699,0.377-0.94,0.744c-0.298,0.453-0.673,0.856-1.035,1.265c-0.134,0.151-0.131,0.247-0.012,0.399  c0.602,0.769,1.377,1.305,2.259,1.698c0.292,0.13,0.461,0.045,0.568-0.26c0.026-0.073,0.066-0.142,0.106-0.208  c0.292-0.488,0.607-0.964,0.868-1.468c0.116-0.224,0.162-0.503,0.167-0.758C25.241,62.318,25.153,62.065,25.106,61.813z   M26.848,65.041c-0.102-0.063-0.214-0.19-0.304-0.176c-0.633,0.104-1.26,0.122-1.893-0.009c-0.063-0.014-0.154,0.107-0.232,0.166  c0.048,0.048,0.089,0.124,0.146,0.139C25.311,65.349,26.054,65.311,26.848,65.041z M27.568,55.193  c-0.025,0.022-0.05,0.045-0.075,0.067c0.06,0.093,0.1,0.215,0.184,0.273c0.386,0.269,0.788,0.514,1.175,0.779  c0.144,0.099,0.258,0.239,0.398,0.344c0.049,0.036,0.137,0.021,0.207,0.03c-0.001-0.068,0.026-0.159-0.007-0.2  c-0.471-0.572-1.094-0.943-1.736-1.285C27.675,55.182,27.617,55.195,27.568,55.193z M21.207,62.729  c0.16-0.089,0.216-0.153,0.112-0.33c-0.166-0.279-0.303-0.581-0.414-0.887c-0.098-0.272-0.134-0.566-0.217-0.844  c-0.025-0.085-0.119-0.148-0.182-0.222c-0.038,0.088-0.113,0.179-0.106,0.263C20.462,61.46,20.806,62.1,21.207,62.729z   M29.888,62.736c0.479-0.218,0.994-1.662,0.88-2.318c-0.062,0.012-0.174,0.007-0.183,0.036  C30.352,61.194,30.129,61.938,29.888,62.736z M23.443,55.146c-0.599,0.443-1.215,0.9-1.826,1.354c0.128,0.209,0.21,0.293,0.366,0.14  c0.446-0.441,0.919-0.846,1.509-1.094C23.682,55.466,23.706,55.327,23.443,55.146z M25.42,62.693c-0.002,0-0.004,0-0.006,0  c0,0.168-0.009,0.337,0.004,0.504c0.005,0.066,0.044,0.163,0.095,0.186c0.057,0.026,0.161,0.006,0.212-0.035  c0.046-0.036,0.068-0.13,0.063-0.195c-0.011-0.146-0.061-0.289-0.066-0.435c-0.006-0.166,0.04-0.336,0.021-0.499  c-0.009-0.078-0.116-0.144-0.179-0.215c-0.048,0.071-0.126,0.139-0.137,0.215C25.405,62.374,25.42,62.535,25.42,62.693z   M25.585,59.65c-0.21,0.002-0.397,0.174-0.391,0.36c0.005,0.156,0.249,0.401,0.402,0.405c0.186,0.004,0.376-0.192,0.374-0.385  C25.968,59.778,25.836,59.648,25.585,59.65z M27.453,57.21c-0.239,0.318-0.485,0.632-0.708,0.961  c-0.039,0.056,0.021,0.179,0.036,0.271c0.08-0.036,0.185-0.052,0.234-0.112c0.181-0.22,0.333-0.463,0.517-0.68  C27.743,57.401,27.745,57.366,27.453,57.21z M27.459,60.785c0.354,0.114,0.683,0.189,0.983,0.326  c0.32,0.146,0.367,0.137,0.382-0.201c-0.421-0.143-0.833-0.281-1.269-0.429C27.528,60.567,27.497,60.667,27.459,60.785z   M23.489,57.346c0.241,0.355,0.463,0.696,0.705,1.022c0.037,0.049,0.165,0.03,0.25,0.042c-0.007-0.104,0.021-0.231-0.029-0.31  c-0.151-0.234-0.348-0.44-0.496-0.677C23.799,57.235,23.68,57.221,23.489,57.346z M23.553,60.49  c-0.054,0.021-0.081,0.033-0.108,0.041c-0.326,0.099-0.656,0.187-0.975,0.304c-0.053,0.02-0.091,0.173-0.076,0.253  c0.009,0.046,0.15,0.112,0.211,0.095c0.193-0.054,0.374-0.148,0.563-0.216c0.14-0.049,0.292-0.067,0.428-0.124  c0.054-0.023,0.121-0.125,0.108-0.172C23.686,60.601,23.604,60.546,23.553,60.49z M29.861,56.493  c-0.179-0.54-1.645-1.696-2.347-1.651C28.455,55.253,29.244,55.752,29.861,56.493z M26.676,65.431c-0.804,0-1.608,0-2.377,0  C24.514,65.661,26.236,65.744,26.676,65.431z M21.26,56.422c0.014,0.024,0.028,0.049,0.042,0.072  c0.374-0.338,0.749-0.677,1.123-1.016C21.91,55.643,21.601,56.051,21.26,56.422z M26.258,59.218  c0.179-0.149,0.327-0.259,0.448-0.393c0.021-0.022-0.062-0.204-0.126-0.226C26.333,58.519,26.19,58.749,26.258,59.218z   M31.094,61.362c-0.043-0.017-0.087-0.033-0.13-0.05c-0.181,0.482-0.361,0.965-0.542,1.447c0.038,0.014,0.075,0.028,0.113,0.042  C30.721,62.322,30.907,61.842,31.094,61.362z M27.335,60.377c-0.241-0.069-0.372-0.128-0.505-0.136  c-0.068-0.005-0.141,0.082-0.212,0.127c0.149,0.115,0.291,0.242,0.455,0.329C27.095,60.708,27.227,60.511,27.335,60.377z   M25.431,61.813c0.149-0.074,0.336-0.128,0.333-0.173c-0.008-0.167-0.078-0.332-0.125-0.497c-0.069,0.035-0.191,0.062-0.199,0.107  C25.415,61.401,25.431,61.561,25.431,61.813z M23.974,60.688c0.035,0.024,0.069,0.049,0.104,0.073  c0.184-0.122,0.367-0.244,0.551-0.365c-0.01-0.038-0.02-0.075-0.03-0.113c-0.196,0.016-0.398,0.011-0.584,0.063  C23.971,60.357,23.985,60.568,23.974,60.688z M24.891,59.168c0.034-0.032,0.067-0.065,0.101-0.098  c-0.037-0.131-0.05-0.276-0.12-0.385c-0.039-0.06-0.187-0.093-0.264-0.068c-0.056,0.018-0.128,0.194-0.104,0.221  C24.616,58.963,24.759,59.061,24.891,59.168z M20.108,60.397c-0.194,0.461,0.048,0.874,0.083,1.313  c0.036-0.004,0.072-0.008,0.108-0.012C20.235,61.265,20.171,60.831,20.108,60.397z M20.559,62.13  c-0.061,0.302,0.131,0.669,0.44,0.832C20.845,62.672,20.713,62.421,20.559,62.13z M31.183,60.417c-0.21,0.351-0.208,0.586,0,0.679  C31.183,60.88,31.183,60.675,31.183,60.417z M26.229,60.694c-0.067,0.127-0.139,0.202-0.136,0.274  c0.002,0.051,0.118,0.145,0.162,0.134c0.074-0.017,0.132-0.103,0.196-0.16C26.393,60.876,26.333,60.811,26.229,60.694z   M26.586,59.88c0.052,0.005,0.104,0.01,0.156,0.015c0.032-0.116,0.063-0.231,0.095-0.348c-0.089,0.003-0.178,0.007-0.268,0.01  C26.575,59.664,26.581,59.771,26.586,59.88z M25.571,58.623c-0.072,0.132-0.146,0.206-0.139,0.271  c0.006,0.061,0.097,0.113,0.15,0.17c0.059-0.066,0.146-0.126,0.167-0.203C25.762,58.818,25.667,58.745,25.571,58.623z   M24.724,59.679c-0.099-0.078-0.164-0.169-0.212-0.16c-0.063,0.011-0.16,0.101-0.158,0.154c0.002,0.063,0.084,0.162,0.147,0.176  C24.548,59.859,24.62,59.762,24.724,59.679z M25.211,60.938c-0.145-0.071-0.218-0.139-0.282-0.13  c-0.063,0.008-0.115,0.093-0.172,0.144c0.054,0.054,0.108,0.151,0.16,0.149C24.993,61.1,25.065,61.025,25.211,60.938z M22.8,55.106  c0.014,0.032,0.029,0.064,0.043,0.097c0.224-0.101,0.447-0.202,0.67-0.303c-0.014-0.032-0.028-0.063-0.042-0.095  C23.248,54.905,23.024,55.006,22.8,55.106z"/><path fill-rule="evenodd" clip-rule="evenodd" d="M86.836,60.012c0.011,3.47-2.849,6.069-6.189,5.91  c-3.063-0.146-5.717-2.9-5.564-6.221c0.139-3.015,2.644-5.854,6.443-5.559C84.31,54.358,86.857,56.761,86.836,60.012z   M84.493,55.716c-0.004,0.019-0.019,0.047-0.012,0.055c0.228,0.238,0.456,0.476,0.688,0.709c0.012,0.012,0.053-0.005,0.102-0.012  c-0.014-0.054-0.012-0.11-0.038-0.14c-0.173-0.189-0.347-0.379-0.533-0.555c-0.046-0.043-0.14-0.035-0.212-0.051  c-0.002-0.029,0.008-0.073-0.007-0.087c-0.434-0.378-0.901-0.692-1.479-0.805c0.019,0.04,0.046,0.067,0.077,0.086  c0.452,0.267,0.903,0.533,1.356,0.797C84.449,55.723,84.474,55.716,84.493,55.716z M78.137,55.17c-0.13,0.08-0.27,0.147-0.388,0.242  c-0.396,0.318-0.785,0.646-1.177,0.971c0.026,0.035,0.054,0.071,0.08,0.106c0.061-0.038,0.128-0.068,0.182-0.114  c0.391-0.335,0.782-0.67,1.167-1.011c0.058-0.051,0.086-0.134,0.129-0.202c0.306,0.012,0.55-0.117,0.769-0.308  c-0.013-0.027-0.026-0.054-0.039-0.081C78.619,54.905,78.378,55.038,78.137,55.17z M80.567,58.604  c0.218-0.197,0.44-0.211,0.646-0.08c0.143,0.091,0.207,0.038,0.29-0.06c0.178-0.211,0.34-0.439,0.542-0.624  c0.34-0.312,0.456-0.698,0.488-1.138c0.042-0.57,0.126-1.139,0.152-1.709c0.007-0.144-0.104-0.378-0.219-0.424  c-0.267-0.107-0.567-0.147-0.857-0.173c-0.327-0.029-0.659-0.033-0.985-0.01c-0.363,0.026-0.727,0.082-1.084,0.153  c-0.214,0.043-0.352,0.158-0.318,0.435c0.064,0.542,0.065,1.092,0.135,1.633c0.04,0.317,0.093,0.67,0.262,0.927  C79.874,57.923,80.236,58.241,80.567,58.604z M82.425,59.942c0.272,0.134,0.497,0.253,0.729,0.356  c0.348,0.154,0.682,0.359,1.097,0.255c0.727-0.184,1.457-0.347,2.182-0.536c0.065-0.017,0.144-0.161,0.139-0.241  c-0.028-0.391-0.021-0.801-0.144-1.165c-0.193-0.572-0.475-1.117-0.735-1.666c-0.079-0.165-0.229-0.228-0.428-0.142  c-0.528,0.231-1.064,0.446-1.595,0.673c-0.346,0.147-0.673,0.328-0.881,0.657c-0.188,0.298-0.364,0.604-0.533,0.914  c-0.028,0.051-0.019,0.167,0.021,0.202C82.498,59.455,82.576,59.683,82.425,59.942z M81.461,61.38  c-0.023,0.318,0.004,0.609-0.075,0.868c-0.122,0.398-0.09,0.778,0.094,1.118c0.321,0.596,0.695,1.165,1.054,1.741  c0.106,0.171,0.258,0.277,0.474,0.188c0.908-0.38,1.693-0.927,2.312-1.7c0.123-0.154,0.131-0.302-0.002-0.451  c-0.5-0.564-0.98-1.146-1.51-1.681c-0.178-0.18-0.474-0.261-0.729-0.338c-0.313-0.093-0.641-0.135-0.97-0.199  C82.083,61.286,81.818,61.391,81.461,61.38z M79.461,59.978c-0.021-0.27-0.083-0.581,0.246-0.766  c0.013-0.007-0.03-0.137-0.065-0.199c-0.101-0.186-0.214-0.363-0.314-0.549c-0.189-0.349-0.395-0.688-0.775-0.853  c-0.639-0.275-1.289-0.522-1.926-0.8c-0.204-0.089-0.32-0.019-0.419,0.134c-0.544,0.846-0.837,1.772-0.878,2.777  c-0.007,0.171,0.025,0.284,0.242,0.33c0.499,0.104,0.992,0.241,1.48,0.387c0.618,0.184,1.2,0.175,1.761-0.19  C78.998,60.129,79.227,60.073,79.461,59.978z M80.468,61.811c0.028-0.013,0.058-0.026,0.087-0.04  c-0.077-0.132-0.128-0.345-0.236-0.379c-0.221-0.071-0.41-0.126-0.488-0.371c-0.011-0.036-0.1-0.077-0.145-0.069  c-0.367,0.065-0.739,0.121-1.098,0.221c-0.398,0.111-0.673,0.378-0.91,0.727c-0.312,0.458-0.705,0.857-1.044,1.298  c-0.058,0.075-0.068,0.264-0.015,0.336c0.593,0.804,1.392,1.345,2.296,1.74c0.273,0.119,0.433,0.03,0.534-0.239  c0.048-0.128,0.114-0.251,0.185-0.369c0.271-0.454,0.571-0.895,0.813-1.364c0.11-0.214,0.149-0.485,0.15-0.731  C80.599,62.315,80.515,62.063,80.468,61.811z M82.176,65.115c-0.045-0.232-0.155-0.252-0.366-0.241  c-0.571,0.029-1.145-0.005-1.718,0.003c-0.104,0.001-0.207,0.08-0.311,0.123c0.04,0.055,0.07,0.146,0.121,0.158  C80.655,65.346,81.407,65.313,82.176,65.115z M82.813,55.199c0.102,0.155,0.143,0.276,0.227,0.334  c0.347,0.238,0.714,0.447,1.061,0.687c0.184,0.127,0.335,0.3,0.512,0.438c0.048,0.037,0.136,0.022,0.206,0.032  c-0.001-0.067,0.026-0.158-0.007-0.199c-0.469-0.575-1.094-0.945-1.735-1.288C83.037,55.182,82.979,55.199,82.813,55.199z   M76.563,62.724c0.192-0.146,0.191-0.146,0.108-0.323c-0.138-0.296-0.297-0.584-0.407-0.89c-0.099-0.272-0.133-0.566-0.217-0.845  c-0.025-0.083-0.12-0.146-0.183-0.219c-0.036,0.089-0.108,0.18-0.103,0.265C75.818,61.465,76.172,62.1,76.563,62.724z M85.23,62.667  c0.038,0.022,0.077,0.046,0.115,0.068c0.091-0.099,0.205-0.186,0.27-0.3c0.317-0.558,0.438-1.178,0.541-1.801  c0.012-0.075-0.057-0.164-0.088-0.246c-0.055,0.068-0.133,0.128-0.159,0.206c-0.178,0.534-0.344,1.073-0.516,1.609  C85.344,62.359,85.285,62.513,85.23,62.667z M76.973,56.481c0.148,0.276,0.244,0.277,0.395,0.133  c0.429-0.413,0.874-0.808,1.432-1.053c0.083-0.036,0.12-0.178,0.178-0.271c-0.1,0-0.227-0.04-0.295,0.006  C78.107,55.682,77.544,56.083,76.973,56.481z M81.331,60.036c-0.002-0.256-0.13-0.375-0.38-0.388  c-0.262-0.014-0.35,0.158-0.387,0.357c-0.029,0.154,0.229,0.4,0.39,0.408C81.136,60.422,81.332,60.225,81.331,60.036z   M80.781,62.731c0.005,0,0.011,0.001,0.016,0.001c-0.009,0.157-0.039,0.319-0.017,0.473c0.011,0.075,0.121,0.195,0.184,0.193  c0.128-0.003,0.24-0.071,0.189-0.256c-0.043-0.159-0.062-0.328-0.069-0.493c-0.007-0.137,0.039-0.277,0.02-0.41  c-0.013-0.085-0.104-0.157-0.159-0.235c-0.055,0.074-0.144,0.144-0.155,0.224C80.765,62.393,80.781,62.563,80.781,62.731z   M82.811,57.217c-0.236,0.315-0.482,0.629-0.706,0.957c-0.037,0.056,0.024,0.178,0.04,0.27c0.079-0.037,0.183-0.054,0.232-0.115  c0.187-0.228,0.339-0.484,0.536-0.7C83.092,57.433,83.1,57.313,82.811,57.217z M84.201,60.916c-0.439-0.147-0.852-0.286-1.287-0.432  c-0.027,0.094-0.058,0.199-0.089,0.305c0.344,0.109,0.666,0.176,0.955,0.312C84.12,61.26,84.14,61.271,84.201,60.916z   M79.103,60.723c-0.002-0.038-0.004-0.077-0.005-0.116c-0.109-0.02-0.227-0.076-0.324-0.053c-0.313,0.073-0.621,0.167-0.922,0.277  c-0.06,0.021-0.112,0.161-0.103,0.237c0.006,0.052,0.144,0.139,0.197,0.123c0.326-0.095,0.646-0.21,0.965-0.328  C78.982,60.837,79.039,60.771,79.103,60.723z M78.848,57.343c0.215,0.322,0.419,0.64,0.636,0.946  c0.051,0.071,0.143,0.125,0.228,0.153c0.031,0.011,0.139-0.08,0.136-0.117c-0.009-0.087-0.05-0.179-0.102-0.253  c-0.143-0.206-0.309-0.397-0.442-0.609C79.192,57.29,79.086,57.181,78.848,57.343z M82.35,65.394  c-0.906,0.141-1.813,0.13-2.72,0.044C80.536,65.675,81.443,65.72,82.35,65.394z M81.662,59.185c0.139-0.118,0.304-0.218,0.405-0.362  c0.076-0.107,0.004-0.225-0.158-0.238C81.68,58.564,81.572,58.735,81.662,59.185z M82.698,60.376  c-0.241-0.067-0.372-0.125-0.507-0.133c-0.067-0.005-0.141,0.08-0.211,0.125c0.148,0.115,0.289,0.244,0.453,0.331  C82.455,60.711,82.589,60.512,82.698,60.376z M79.354,60.705c0.34-0.028,0.525-0.162,0.582-0.441  c-0.204,0.028-0.399,0.036-0.576,0.097C79.323,60.373,79.354,60.583,79.354,60.705z M80.791,61.779  c0.126-0.036,0.317-0.062,0.318-0.097c0.008-0.158-0.028-0.32-0.071-0.476c-0.011-0.04-0.104-0.078-0.16-0.077  c-0.029,0-0.079,0.083-0.083,0.132C80.784,61.408,80.791,61.557,80.791,61.779z M80.361,59.09c-0.043-0.15-0.055-0.288-0.122-0.388  c-0.042-0.063-0.179-0.111-0.254-0.091c-0.061,0.016-0.149,0.185-0.128,0.212C79.968,58.969,80.067,59.165,80.361,59.09z   M85.897,62.521c0.034,0.011,0.068,0.021,0.102,0.031c0.122-0.406,0.381-0.771,0.408-1.206c-0.033-0.011-0.066-0.021-0.1-0.031  C86.171,61.717,86.034,62.119,85.897,62.521z M75.535,61.712c0.043-0.005,0.086-0.011,0.129-0.016  c-0.067-0.435-0.135-0.87-0.202-1.305c-0.04,0.005-0.08,0.011-0.12,0.017C75.406,60.843,75.471,61.277,75.535,61.712z   M75.911,62.121c-0.052,0.338,0.169,0.726,0.425,0.799C76.2,62.664,76.068,62.417,75.911,62.121z M86.536,60.395  c-0.188,0.35-0.191,0.577,0,0.732C86.536,60.881,86.536,60.666,86.536,60.395z M81.598,60.693c-0.069,0.122-0.143,0.196-0.143,0.27  c0,0.05,0.112,0.148,0.156,0.14c0.075-0.016,0.136-0.1,0.203-0.154C81.756,60.88,81.698,60.812,81.598,60.693z M81.937,59.874  c0.062,0.004,0.124,0.008,0.186,0.013c0.026-0.111,0.054-0.223,0.08-0.334c-0.089-0.001-0.178-0.002-0.266-0.003  C81.937,59.658,81.937,59.766,81.937,59.874z M80.946,58.641c-0.077,0.105-0.164,0.174-0.153,0.223  c0.015,0.074,0.098,0.134,0.151,0.2c0.059-0.066,0.145-0.126,0.166-0.204C81.123,58.817,81.027,58.744,80.946,58.641z   M80.553,60.918c-0.13-0.057-0.207-0.12-0.271-0.109c-0.062,0.01-0.108,0.099-0.162,0.153c0.066,0.05,0.131,0.136,0.2,0.14  C80.377,61.104,80.439,61.012,80.553,60.918z M80.085,59.668c-0.103-0.074-0.172-0.161-0.219-0.15  c-0.064,0.015-0.156,0.108-0.152,0.162c0.005,0.063,0.092,0.156,0.155,0.169C79.916,59.857,79.984,59.757,80.085,59.668z"/><path fill-rule="evenodd" clip-rule="evenodd" d="M25.859,54.709c-1.289,0.224-1.289,0.224-1.197,0.512  c0.376-0.052,0.738-0.127,1.103-0.144c0.187-0.009,0.377,0.094,0.569,0.133c0.082,0.017,0.17,0,0.256-0.001  c-0.039-0.092-0.062-0.197-0.123-0.27c-0.045-0.053-0.142-0.062-0.221-0.092c0.196-0.102,0.47,0.012,0.479,0.208  c0.037,0.828-0.013,1.656-0.36,2.416c-0.127,0.278-0.431,0.482-0.673,0.697c-0.049,0.044-0.213,0.021-0.281-0.028  c-0.501-0.375-0.812-0.841-0.799-1.51c0.01-0.501-0.088-1.003-0.108-1.506c-0.004-0.101,0.108-0.273,0.198-0.298  c0.374-0.101,0.76-0.157,1.141-0.229C25.847,54.635,25.853,54.672,25.859,54.709z M25.655,56.634c0-0.007,0-0.015-0.001-0.021  c-0.127,0.008-0.266-0.013-0.38,0.031c-0.091,0.034-0.196,0.136-0.219,0.227c-0.047,0.187,0.313,0.747,0.465,0.706  c0.196-0.051,0.374-0.21,0.53-0.354c0.067-0.062,0.057-0.204,0.091-0.306c0.061-0.181-0.023-0.263-0.189-0.281  C25.854,56.625,25.753,56.634,25.655,56.634z"/><path fill-rule="evenodd" clip-rule="evenodd" d="M21.402,57.695c-0.097-0.054-0.205-0.144-0.23-0.124  c-0.134,0.103-0.277,0.216-0.361,0.357c-0.122,0.208-0.196,0.444-0.307,0.706c-0.056-0.328,0.223-0.974,0.451-1.118  c0.316-0.2,0.601-0.024,0.877,0.089c0.352,0.143,0.681,0.343,1.032,0.486c0.486,0.198,0.757,0.577,0.953,1.033  c0.046,0.107,0.085,0.217,0.133,0.34c-0.552,0.393-1.106,0.725-1.849,0.469c-0.424-0.146-0.884-0.185-1.326-0.28  c-0.405-0.087-0.583-0.468-0.397-0.88c0.124,0.25-0.032,0.631,0.405,0.732C20.809,58.865,20.804,58.208,21.402,57.695z   M22.717,59.603c0.121-0.053,0.31-0.114,0.477-0.215c0.064-0.038,0.126-0.183,0.102-0.244c-0.069-0.172-0.163-0.343-0.284-0.481  c-0.228-0.26-0.403-0.229-0.544,0.082c-0.061,0.134-0.081,0.285-0.13,0.424C22.222,59.495,22.302,59.61,22.717,59.603z"/><path fill-rule="evenodd" clip-rule="evenodd" d="M30.675,58.58c0.283,0.229,0.141,0.526,0.115,0.798  c-0.02,0.218-0.207,0.249-0.386,0.284c-0.59,0.114-1.177,0.244-1.768,0.352c-0.484,0.089-0.854-0.189-1.217-0.439  c-0.216-0.149-0.046-0.364,0.006-0.533c0.177-0.577,0.659-0.852,1.158-1.093c0.324-0.157,0.657-0.297,0.992-0.431  c0.498-0.199,0.818-0.052,0.982,0.459c0.064,0.197,0.086,0.408,0.127,0.613c-0.042-0.074-0.095-0.146-0.123-0.225  c-0.101-0.285-0.144-0.61-0.47-0.741c-0.08-0.032-0.193,0.019-0.34,0.037c0.608,0.545,0.678,1.197,0.674,1.919  C30.799,59.249,30.686,58.905,30.675,58.58z M28.479,59.587c0.448-0.016,0.513-0.109,0.397-0.422  c-0.061-0.166-0.107-0.34-0.19-0.494c-0.042-0.079-0.152-0.181-0.225-0.176c-0.256,0.016-0.589,0.477-0.557,0.741  c0.006,0.051,0.035,0.123,0.075,0.142C28.172,59.468,28.372,59.543,28.479,59.587z"/><path fill-rule="evenodd" clip-rule="evenodd" d="M28.585,64.401c-0.099,0.347-0.42,0.317-0.669,0.355  c-0.209,0.032-0.405-0.039-0.522-0.292c-0.215-0.461-0.465-0.908-0.733-1.342c-0.189-0.308-0.253-0.618-0.187-0.964  c0.044-0.229,0.089-0.457,0.144-0.743c0.396,0.07,0.764,0.12,1.124,0.206c0.122,0.029,0.239,0.132,0.331,0.227  c0.396,0.408,0.78,0.828,1.172,1.24c0.2,0.21,0.197,0.479,0.096,0.692c-0.147,0.311-0.411,0.541-0.765,0.63  c0.095-0.093,0.181-0.197,0.285-0.276c0.34-0.257,0.451-0.51,0.312-0.883c-0.36,0.639-0.866,1.033-1.557,1.162  c0.041,0.323,0.245,0.267,0.436,0.203C28.233,64.557,28.408,64.475,28.585,64.401z M26.866,62.398  c-0.008,0.373,0.149,0.637,0.324,0.553c0.271-0.13,0.502-0.345,0.745-0.53c0.023-0.018,0.022-0.09,0.008-0.127  c-0.069-0.186-0.568-0.434-0.792-0.381C26.874,61.979,26.882,62.218,26.866,62.398z"/><path fill-rule="evenodd" clip-rule="evenodd" d="M24.587,61.489c0.06,0.208,0.127,0.374,0.153,0.545  c0.057,0.377,0.017,0.729-0.194,1.076c-0.219,0.36-0.35,0.772-0.552,1.144c-0.299,0.551-0.625,0.677-1.156,0.365  c-0.366-0.214-0.744-0.464-0.955-0.873c-0.121-0.233-0.105-0.444,0.073-0.639c0.402-0.44,0.774-0.916,1.222-1.304  c0.226-0.195,0.585-0.252,0.895-0.329C24.238,61.434,24.425,61.482,24.587,61.489z M23.241,62.283  c0.001,0.043,0.002,0.085,0.003,0.127c0.223,0.175,0.438,0.362,0.673,0.517c0.06,0.039,0.266-0.013,0.271-0.045  c0.042-0.254,0.089-0.519,0.06-0.771c-0.018-0.15-0.181-0.252-0.371-0.151C23.667,62.07,23.454,62.176,23.241,62.283z   M23.702,64.412c-0.081-0.018-0.126-0.031-0.173-0.038c-0.558-0.084-0.946-0.417-1.271-0.854c-0.057-0.076-0.156-0.122-0.236-0.182  c-0.004,0.104-0.045,0.227-0.006,0.312c0.205,0.447,0.618,0.657,1.026,0.88C23.288,64.664,23.5,64.758,23.702,64.412z"/><path fill-rule="evenodd" clip-rule="evenodd" d="M81.212,54.695c-1.16,0.153-1.273,0.208-1.188,0.548  c0.337-0.062,0.669-0.153,1.005-0.171c0.217-0.012,0.438,0.094,0.661,0.132c0.087,0.016,0.181-0.008,0.272-0.014  c-0.049-0.09-0.084-0.19-0.15-0.264c-0.045-0.049-0.134-0.058-0.23-0.096c0.238-0.067,0.495,0.048,0.503,0.22  c0.036,0.809-0.02,1.617-0.337,2.365c-0.123,0.289-0.428,0.508-0.672,0.734c-0.055,0.051-0.235,0.042-0.305-0.01  c-0.501-0.376-0.814-0.842-0.8-1.514c0.011-0.501-0.085-1.005-0.11-1.508c-0.005-0.09,0.073-0.229,0.153-0.271  C80.391,54.651,80.798,54.617,81.212,54.695z M81.003,56.626L81.003,56.626c-0.079-0.001-0.158-0.006-0.236,0  c-0.354,0.024-0.459,0.19-0.298,0.51c0.068,0.134,0.181,0.259,0.303,0.348c0.079,0.058,0.232,0.088,0.314,0.05  c0.125-0.06,0.256-0.171,0.313-0.293c0.069-0.149,0.106-0.341,0.075-0.497c-0.013-0.063-0.248-0.081-0.383-0.116  C81.063,56.62,81.032,56.626,81.003,56.626z"/><path fill-rule="evenodd" clip-rule="evenodd" d="M86.032,58.578c0.282,0.227,0.146,0.522,0.119,0.794  c-0.021,0.214-0.197,0.255-0.381,0.289c-0.59,0.112-1.177,0.243-1.768,0.353c-0.482,0.089-0.849-0.195-1.219-0.435  c-0.058-0.037-0.076-0.182-0.063-0.27c0.105-0.716,0.614-1.081,1.216-1.354c0.347-0.158,0.694-0.316,1.05-0.454  c0.413-0.16,0.712-0.064,0.893,0.329c0.105,0.229,0.111,0.504,0.163,0.758c-0.04-0.065-0.088-0.127-0.119-0.196  c-0.095-0.213-0.154-0.448-0.282-0.638c-0.151-0.223-0.352-0.211-0.462-0.024c0.548,0.473,0.603,1.131,0.613,1.837  C86.161,59.245,86.052,58.903,86.032,58.578z M83.985,59.649c0.105-0.104,0.308-0.229,0.291-0.304  c-0.06-0.263-0.188-0.513-0.306-0.76c-0.023-0.049-0.136-0.104-0.176-0.086c-0.283,0.127-0.476,0.343-0.524,0.655  c-0.012,0.071,0.026,0.194,0.079,0.224C83.529,59.477,83.726,59.543,83.985,59.649z"/><path fill-rule="evenodd" clip-rule="evenodd" d="M83.94,64.407c-0.087,0.343-0.402,0.307-0.639,0.348  c-0.222,0.038-0.426-0.026-0.547-0.295c-0.202-0.445-0.425-0.891-0.705-1.289c-0.397-0.563-0.184-1.114-0.077-1.757  c0.396,0.071,0.771,0.127,1.138,0.211c0.114,0.026,0.226,0.117,0.311,0.205c0.395,0.408,0.777,0.828,1.171,1.238  c0.211,0.218,0.212,0.496,0.106,0.718c-0.146,0.309-0.414,0.537-0.766,0.629c0.095-0.094,0.18-0.199,0.286-0.277  c0.37-0.271,0.483-0.551,0.295-0.853c-0.346,0.612-0.852,0.997-1.533,1.129c0.037,0.332,0.246,0.262,0.436,0.201  C83.595,64.558,83.766,64.478,83.94,64.407z M82.561,61.901c-0.035,0.012-0.105,0.022-0.159,0.059  c-0.216,0.145-0.25,0.641-0.048,0.892c0.219,0.272,0.391,0.044,0.568-0.077c0.04-0.027,0.083-0.056,0.116-0.092  c0.101-0.112,0.197-0.229,0.295-0.344c-0.141-0.115-0.273-0.244-0.426-0.342C82.819,61.941,82.699,61.938,82.561,61.901z"/><path fill-rule="evenodd" clip-rule="evenodd" d="M79.317,59.473c-0.439,0.269-0.847,0.63-1.404,0.542  c-0.642-0.103-1.277-0.243-1.912-0.385c-0.215-0.048-0.417-0.444-0.334-0.7c0.137-0.419,0.303-0.83,0.492-1.227  c0.125-0.262,0.395-0.349,0.657-0.236c0.559,0.241,1.116,0.487,1.661,0.759c0.382,0.191,0.555,0.568,0.714,0.942  C79.229,59.258,79.266,59.349,79.317,59.473z M78.067,59.603c0.132-0.055,0.327-0.124,0.509-0.22  c0.054-0.029,0.111-0.154,0.09-0.202c-0.083-0.188-0.169-0.388-0.306-0.536c-0.225-0.245-0.397-0.206-0.529,0.092  c-0.06,0.134-0.08,0.284-0.129,0.424C77.584,59.499,77.653,59.606,78.067,59.603z M76.04,59.534  c0.041-0.018,0.082-0.036,0.124-0.054c0-0.186-0.022-0.375,0.004-0.558c0.056-0.386,0.14-0.765,0.412-1.071  c0.052-0.059,0.07-0.146,0.104-0.219c-0.1,0.012-0.248-0.015-0.291,0.04c-0.331,0.432-0.627,0.892-0.58,1.468  C75.825,59.277,75.961,59.403,76.04,59.534z"/><path fill-rule="evenodd" clip-rule="evenodd" d="M77.674,64.165c-0.142-0.14-0.306-0.263-0.42-0.422  c-0.164-0.228-0.103-0.458,0.08-0.657c0.395-0.432,0.759-0.901,1.202-1.277c0.234-0.198,0.603-0.255,0.92-0.336  c0.155-0.04,0.333,0.01,0.5,0.02c0.055,0.222,0.112,0.437,0.158,0.654c0.12,0.56-0.24,0.973-0.447,1.432  c-0.112,0.249-0.228,0.498-0.361,0.736c-0.267,0.475-0.699,0.59-1.153,0.291c-0.183-0.119-0.326-0.298-0.487-0.449  c0.282,0.142,0.576,0.266,0.845,0.431c0.25,0.154,0.39,0.052,0.56-0.161c-0.084-0.023-0.135-0.045-0.188-0.054  c-0.556-0.091-0.948-0.417-1.268-0.859c-0.055-0.076-0.159-0.115-0.241-0.172c0.001,0.106-0.029,0.226,0.01,0.315  C77.46,63.834,77.574,63.996,77.674,64.165z M78.601,62.286c0.003,0.042,0.005,0.083,0.008,0.125  c0.215,0.171,0.418,0.358,0.649,0.502c0.068,0.042,0.296-0.018,0.308-0.065c0.056-0.224,0.101-0.466,0.07-0.689  c-0.025-0.182-0.182-0.31-0.402-0.197C79.021,62.068,78.812,62.178,78.601,62.286z"/><path d="M94.547,51.807c-0.151-0.47-0.147-1.031-0.682-1.31c-0.042-0.022-0.059-0.099-0.082-0.152  C93.486,49.675,93.2,49,92.89,48.336c-0.112-0.239-0.355-0.432-0.416-0.676c-0.179-0.721-0.664-1.189-1.246-1.545  c-0.84-0.513-1.817-0.631-2.765-0.811c-0.456-0.087-0.924-0.115-1.382-0.198c-0.751-0.136-1.494-0.318-2.248-0.439  c-0.605-0.097-1.223-0.128-1.834-0.193c-1.442-0.154-2.885-0.318-4.328-0.465c-0.631-0.064-1.269-0.077-1.897-0.154  c-0.46-0.057-0.911-0.18-1.366-0.273c-0.425-0.087-0.846-0.219-1.274-0.252c-0.595-0.046-1.195-0.017-1.794-0.023  c-0.089-0.001-0.182-0.002-0.266-0.028c-0.435-0.135-0.824-0.062-1.153,0.254c-0.172,0.165-0.302,0.136-0.484,0.002  c-1.567-1.156-3.133-2.317-4.719-3.448c-1.57-1.12-3.154-2.22-4.75-3.303c-1.317-0.894-2.652-1.764-3.996-2.618  c-0.713-0.453-1.508-0.748-2.347-0.843c-1.107-0.125-2.222-0.219-3.335-0.265c-1.978-0.081-3.957-0.113-5.935-0.171  c-0.415-0.012-0.829-0.075-1.243-0.072c-3.108,0.019-6.217,0.033-9.325,0.081c-1.902,0.029-3.805,0.103-5.706,0.18  c-1.015,0.041-2.027,0.146-3.042,0.198c-0.504,0.026-1.047,0.081-1.461-0.274c-0.361-0.31-0.719-0.448-1.191-0.359  c-0.451,0.085-0.463,0.063-0.434,0.504c0.015,0.228-0.063,0.323-0.296,0.336c-0.484,0.028-0.969,0.067-1.451,0.123  c-1.726,0.201-3.453,0.396-5.176,0.623c-0.795,0.104-1.587,0.247-2.37,0.421c-0.664,0.147-1.313,0.345-1.52,1.145  c-0.07,0.269-0.025,0.424,0.256,0.436c0.12,0.005,0.264-0.039,0.354,0.013c0.17,0.097,0.335,0.23,0.447,0.387  c0.038,0.053-0.067,0.247-0.149,0.339c-0.503,0.563-1.03,1.105-1.527,1.674c-1.283,1.467-2.564,2.937-3.819,4.428  C7.5,43.306,7.28,43.436,7.013,43.44c-0.425,0.006-0.635,0.277-0.781,0.587c-0.364,0.77-0.469,1.616-0.547,2.447  c-0.074,0.791-0.038,1.594-0.021,2.391c0.017,0.798,0.06,1.596,0.11,2.394c0.028,0.433,0.076,0.866,0.15,1.294  c0.043,0.248,0.157,0.484,0.251,0.763c-0.142,0.013-0.248,0.019-0.353,0.031c-0.466,0.054-0.634,0.175-0.699,0.508  c-0.143,0.729-0.177,1.458-0.021,2.189c0.067,0.318,0.189,0.637,0.191,0.955c0.002,0.438,0.206,0.659,0.588,0.774  c0.179,0.055,0.359,0.1,0.538,0.155c0.762,0.236,1.522,0.476,2.284,0.713c0.641,0.2,1.281,0.405,1.925,0.598  c0.585,0.174,1.176,0.333,1.764,0.5c0.845,0.24,1.691,0.481,2.536,0.725c0.484,0.139,0.966,0.291,1.452,0.422  c0.225,0.062,0.46,0.122,0.69,0.121c0.297-0.001,0.378-0.263,0.485-0.489c0.037-0.079,0.168-0.145,0.246-0.156  c0.365-0.056,0.453,0.204,0.453,0.204c0.278,3.807,3.465,6.819,7.342,6.819c3.375,0,6.228-2.284,7.092-5.388  c0.128-0.187,0.48-0.055,0.62-0.058c0.318-0.006,0.638-0.002,0.957,0.004c0.068,0.001,0.156,0.006,0.201,0.047  c0.304,0.276,0.673,0.193,1.023,0.191c2.872-0.021,5.744-0.028,8.615-0.083c1.073-0.021,2.146-0.149,3.217-0.239  c0.691-0.058,1.379-0.171,2.07-0.198c1.391-0.053,2.783-0.077,4.175-0.09c2.224-0.021,4.447-0.042,6.67-0.028  c2.312,0.015,4.622,0.067,6.934,0.111c1.552,0.03,3.104,0.087,4.656,0.104c0.386,0.004,0.772-0.117,1.16-0.145  c0.304-0.021,0.708-0.08,0.788,0.021l0,0c0.736,3.287,3.677,5.752,7.184,5.752c3.255,0,6.023-2.124,6.992-5.06l0,0  c0.049-0.062,0.442-0.116,0.522-0.035c0.231,0.236,0.751-0.274,0.969,0.231c0.008,0.02,0.051,0.027,0.079,0.033  c0.258,0.059,0.756-0.091,0.736-0.49c-0.007-0.139-0.025-0.288,0.017-0.415c0.04-0.122,0.128-0.271,0.235-0.319  c0.423-0.189,0.864-0.338,1.293-0.513c0.62-0.253,1.246-0.495,1.849-0.787c0.205-0.1,0.379-0.312,0.507-0.511  c0.146-0.226,0.23-0.492,0.327-0.746c0.226-0.592,0.19-1.173-0.082-1.746c-0.035-0.074-0.025-0.205,0.019-0.275  c0.168-0.271,0.215-0.554,0.134-0.855c-0.048-0.179-0.015-0.31,0.15-0.404c0.221-0.127,0.276-0.321,0.288-0.573  C95.042,53.853,94.872,52.817,94.547,51.807z M92.287,48.235c0.368,0.736,0.716,1.483,1.068,2.227  c0.024,0.051,0.022,0.115,0.043,0.226c-0.308,0.043-0.581,0.093-0.856,0.118c-0.446,0.04-0.895,0.067-1.342,0.092  c-0.636,0.036-1.13-0.194-1.461-0.759c-0.5-0.851-1.255-1.261-2.238-1.305c-0.557-0.024-1.104-0.134-1.553-0.503  c-0.229-0.189-0.491-0.37-0.505-0.732c0.464,0,0.917-0.011,1.37,0.002c1.224,0.035,2.446,0.08,3.669,0.121  c0.319,0.011,0.638,0.036,0.956,0.028C91.827,47.739,92.119,47.898,92.287,48.235z M74.504,43.866  C74.502,43.904,74.676,44,74.674,44C73.565,44,72,44,71,44c0,0,0-0.073,0-0.11C72,43.752,73.395,43.882,74.504,43.866z   M71.489,44.258c0.835-0.005,1.671,0.06,2.508,0.086c0.136,0.004,0.279-0.018,0.41-0.059c0.502-0.156,0.991-0.204,1.523-0.085  c0.679,0.15,1.377,0.222,2.071,0.285c0.879,0.081,1.764,0.103,2.643,0.182c0.583,0.053,1.159,0.168,1.74,0.246  c0.681,0.091,1.362,0.173,2.044,0.253c0.474,0.055,0.949,0.093,1.422,0.153c0.163,0.021,0.318,0.097,0.481,0.129  c0.849,0.164,1.697,0.322,2.547,0.482c0.493,0.093,0.997,0.149,1.476,0.292c0.515,0.153,0.955,0.463,1.314,0.87  c0.061,0.068,0.093,0.16,0.165,0.291c-0.146,0.016-0.237,0.036-0.33,0.035c-1.316-0.012-2.633-0.007-3.948-0.044  c-1.621-0.046-3.24-0.135-4.86-0.192c-0.867-0.031-1.735-0.024-2.603-0.048c-3.068-0.086-6.138-0.175-9.207-0.271  c-0.647-0.02-1.294-0.063-1.938-0.12c-0.106-0.009-0.265-0.124-0.291-0.219c-0.17-0.602-0.234-1.239-0.658-1.746  c-0.015-0.018-0.006-0.056-0.012-0.131c0.175,0,0.342,0.019,0.503-0.003c0.469-0.065,0.934-0.157,1.402-0.218  C70.422,44.354,70.956,44.261,71.489,44.258z M30.156,46.318c-0.088,0.014-0.203,0.053-0.262,0.014  c-0.103-0.068-0.172-0.187-0.255-0.284c0.088-0.07,0.17-0.189,0.265-0.201c0.236-0.029,0.477-0.01,0.734-0.01  c0.707,0.043,1.429,0.086,2.151,0.13c0.06,0.004,0.132-0.009,0.176,0.02c0.084,0.054,0.153,0.133,0.229,0.201  c-0.073,0.071-0.144,0.199-0.219,0.202c-0.274,0.01-0.556,0.004-0.826-0.043C31.484,46.23,30.822,46.211,30.156,46.318z   M31.974,46.63c-0.231,0.5-1.207,0.508-1.677,0.039C30.851,46.378,31.406,46.606,31.974,46.63z M30.482,46c0.205-1,0.922-1,1.458,0  C31.414,46,30.959,46,30.482,46z M32.116,45.349c-0.394-0.38-0.97-0.376-1.491-0.241c-0.224,0.059-0.411,0.251-0.623,0.368  c-0.09,0.05-0.2,0.083-0.303,0.088c-0.298,0.017-0.6-0.007-0.896,0.028c-0.231,0.027-0.453,0.121-0.68,0.184  c-0.085,0.024-0.17,0.065-0.255,0.066c-0.568,0.006-1.137,0.011-1.705-0.005c-0.079-0.002-0.2-0.104-0.224-0.184  c-0.177-0.578-0.018-1.139,0.145-1.689c0.021-0.07,0.207-0.041,0.317-0.042C27.14,43.909,27.887,44,28.625,44C30.042,44,32,44,33,44  c0,0,0-0.129,0-0.106c2,0,4.14-0.014,6.244,0.004c2.141,0.019,4.247,0.068,6.387,0.107c0.254,0.005,0.41,0.079,0.484,0.388  c0.097,0.405,0.292,0.783,0.432,1.179c0.153,0.435,0.082,0.63-0.406,0.614c-1.591-0.052-3.185-0.085-4.777-0.114  c-2.559-0.045-5.119-0.082-7.677-0.122C33.182,45.711,32.578,45.795,32.116,45.349z M29.373,46.099  c-0.014,0.085-0.132,0.219-0.202,0.219c-0.235-0.001-0.471-0.046-0.705-0.089c-0.05-0.009-0.133-0.094-0.125-0.121  c0.019-0.062,0.076-0.14,0.133-0.157c0.178-0.054,0.364-0.083,0.547-0.122C29.217,45.833,29.417,45.823,29.373,46.099z   M19.953,43.074c-1.045,0.004-2.091,0.039-3.137,0.049c-0.917,0.009-1.833-0.002-2.75,0.006c-0.277,0.003-0.554,0.043-0.831,0.059  c-0.146,0.008-0.293,0.001-0.513,0.001c0.073-0.165,0.103-0.288,0.172-0.382c0.578-0.78,1.159-1.558,1.749-2.329  c0.548-0.716,1.105-1.427,1.666-2.134c0.644-0.812,1.301-1.612,1.941-2.426c0.202-0.257,0.433-0.358,0.765-0.353  c0.697,0.011,1.395-0.017,2.092-0.041c0.973-0.034,1.946-0.081,2.919-0.118c1.163-0.044,2.326-0.08,3.489-0.126  c0.596-0.024,1.192-0.069,1.788-0.093c0.336-0.014,0.364,0.048,0.224,0.358c-0.63,1.388-1.256,2.777-1.882,4.167  c-0.283,0.629-0.564,1.258-0.838,1.891c-0.16,0.369-0.317,0.739-0.448,1.118c-0.086,0.247-0.2,0.358-0.486,0.356  C23.899,43.064,21.926,43.065,19.953,43.074z M25.832,43.249c-0.099,0.009-0.198,0.114-0.296,0.114  c-3.079-0.002-6.158,0.033-9.237,0.04c-0.604,0.001-1.208,0.101-1.812,0.115c-0.283,0.006-0.567-0.225-0.851-0.256  C13.637,43.231,13.638,43,13.639,43c4.062,0,8.124,0,12.186,0C25.827,43,25.83,43.227,25.832,43.249z M22,35c0,0,0.539,0,0.983,0  S24,35,24,35l0,0C23,35,23,35,22,35L22,35z M25.963,35C26.996,35,28,35,29,35l0,0c-1,0-2.001,0-3.033,0  C25.966,35,25.964,35,25.963,35z M39.211,35.007c1.074-0.019,2.148-0.05,3.221-0.091c0.208-0.008,0.265,0.103,0.297,0.256  c0.057,0.273,0.109,0.547,0.146,0.823c0.07,0.521,0.122,1.043,0.194,1.563c0.118,0.853,0.249,1.705,0.37,2.558  c0.098,0.688,0.186,1.378,0.282,2.066c0.037,0.264,0.087,0.527,0.123,0.791c0.033,0.245-0.341,0.342-0.579,0.338  C42.927,43.306,43,43.31,42,43.31c0-0.02,0-0.04,0-0.061c-2-0.019-5.666-0.04-8.623-0.055c-0.223-0.001-0.181-0.079-0.209-0.309  c-0.149-1.201-0.259-2.398-0.417-3.598c-0.056-0.423-0.06-0.848-0.107-1.272c-0.095-0.857-0.17-1.716-0.275-2.572  c-0.029-0.234,0.049-0.334,0.288-0.337C34.839,35.076,37.029,35.046,39.211,35.007z M38.68,34.738c0,0,0.001-0.06,0.001-0.06  c0.515,0,1.029,0,1.543,0l0,0.06C39.71,34.738,39.195,34.738,38.68,34.738z M45.246,35.195c0.159,0.466,0.305,0.937,0.45,1.407  c0.195,0.632,0.383,1.266,0.576,1.898c0.209,0.688,0.417,1.376,0.633,2.063c0.186,0.59,0.387,1.174,0.569,1.764  c0.098,0.315,0.169,0.638,0.266,1.008c-0.559,0-1.036,0.012-1.511-0.01c-0.093-0.004-0.241-0.127-0.261-0.218  c-0.145-0.635-0.252-1.279-0.39-1.916c-0.198-0.917-0.416-1.829-0.617-2.744c-0.113-0.513-0.207-1.03-0.313-1.544  c-0.113-0.551-0.232-1.101-0.342-1.653c-0.013-0.068-0.008-0.167,0.033-0.214C44.521,34.829,45.159,34.94,45.246,35.195z M44.751,35  c0.108,0,0.372,0,0.672,0C45.2,35,44.977,35,44.751,35z M63.527,43.373c0.441-0.408,0.444-0.407,0.917-0.001  c0.153,0.132,0.305,0.266,0.457,0.399c-0.011,0.021-0.022,0.064-0.034,0.064c-0.559,0-1.116,0-1.675,0  c-0.016,0-0.031-0.047-0.048-0.071C63.271,43.633,63.394,43.497,63.527,43.373z M63.519,42.063c0.089-0.009,0.212-0.06,0.262-0.02  c0.71,0.564,1.409,1.141,2.11,1.715c-0.263,0.14-0.447,0.124-0.638-0.039c-0.535-0.457-1.092-0.888-1.628-1.343  C63.553,42.314,63.553,42.169,63.519,42.063z M63.149,44.135c-0.297,0-0.595,0-0.893,0c0-0.06,0-0.06-0.001-0.06  c0.298,0,0.596,0,0.894,0C63.149,44.075,63.149,44.075,63.149,44.135z M63.376,43.071c-0.417,0.372-0.849,0.706-1.457,0.689  c-0.566-0.015-1.134-0.01-1.7,0.002c-0.437,0.01-0.753-0.414-0.658-0.867c0.728,0,1.441,0.011,2.155-0.003  c0.515-0.01,1.027-0.056,1.541-0.079c0.067-0.003,0.138,0.041,0.206,0.063C63.435,42.942,63.425,43.028,63.376,43.071z   M59.383,42.304C59.396,42.276,59.408,43,59.421,42c0.886,0,1.771,0,2.655,0c0.01,1,0.021,0.29,0.03,0.325  c-0.089,0.04-0.177,0.224-0.267,0.225c-0.728,0.008-1.455-0.047-2.182-0.059C59.565,42.489,59.475,42.35,59.383,42.304z   M63.194,42.207c-0.194,0.474-0.421,0.626-0.836,0.197c-0.139-0.144-0.395-0.229-0.603-0.24c-0.615-0.031-1.234-0.024-1.851-0.006  c-0.475,0.013-0.497-0.163-0.47-0.516c0.019-0.238,0.085-0.48,0.178-0.702c0.235-0.565,0.564-0.739,1.15-0.589  c0.522,0.134,1.056,0.267,1.543,0.489c0.326,0.148,0.593,0.44,0.858,0.696c0.074,0.072,0.051,0.245,0.066,0.342  C63.218,42.01,63.23,42.118,63.194,42.207z M58.966,40.89c-0.179,0.79-0.185,1.602,0.018,2.4c0.012,0.047,0.036,0.093,0.063,0.134  c0.143,0.217,0.05,0.282-0.171,0.275c-1.075-0.034-2.15-0.071-3.226-0.099c-0.848-0.022-1.695-0.031-2.543-0.052  c-1.563-0.038-3.126-0.083-4.689-0.116c-0.438-0.009-0.485-0.348-0.578-0.64c-0.202-0.638-0.379-1.284-0.574-1.924  c-0.258-0.85-0.522-1.699-0.785-2.547c-0.299-0.968-0.599-1.937-0.899-2.904c-0.018-0.056-0.04-0.112-0.068-0.164  c-0.117-0.21-0.003-0.301,0.184-0.328c0.167-0.024,0.338-0.026,0.507-0.024c1.944,0.017,3.888,0.032,5.832,0.057  c0.415,0.005,0.842-0.006,1.241,0.084c0.376,0.085,0.754,0.25,1.077,0.462c0.713,0.468,1.404,0.972,2.082,1.49  c1.168,0.894,2.319,1.808,3.475,2.718c0.081,0.064,0.133,0.164,0.216,0.269C59.59,40.167,59.085,40.362,58.966,40.89z M59,44L59,44  c-2,0-3.502,0-5.08,0c0.001,0,0.003,0,0.005,0c0.794,0,1.589,0,2.383,0C57.09,44,58,44,59,44z M53,44L53,44c-2,0-3,0-4,0l0,0  C50,44,51,44,53,44z M44.517,37.451c0.206,0.936,0.423,1.87,0.625,2.806c0.115,0.532,0.203,1.069,0.313,1.602  c0.065,0.318,0.157,0.631,0.222,0.949c0.031,0.153,0.031,0.313,0.048,0.515c-0.5,0-0.947,0.013-1.393-0.011  c-0.085-0.005-0.216-0.143-0.236-0.238c-0.093-0.457-0.165-0.917-0.224-1.38c-0.064-0.501-0.093-1.007-0.163-1.508  c-0.092-0.658-0.216-1.312-0.313-1.97c-0.078-0.529-0.138-1.06-0.203-1.591c-0.055-0.451-0.096-0.904-0.162-1.354  c-0.035-0.238,0.032-0.357,0.268-0.356c0.169,0,0.345,0,0.503,0.047c0.091,0.027,0.202,0.137,0.223,0.228  C44.201,35.942,44.352,36.698,44.517,37.451z M46,44L46,44c-2,0-4,0-6,0l0,0C42,44,44,44,46,44z M34.491,43  c-0.001,0,0.185,0.289,0.183,0.334C33.72,43.291,33,43.148,32,43.105C32,43.103,32,43,32,43C33,43,33.536,43,34.491,43z   M32.808,42.76c-0.101-0.916-0.182-1.834-0.286-2.75c-0.127-1.115-0.272-2.228-0.408-3.342c-0.046-0.383-0.09-0.767-0.126-1.151  c-0.009-0.1,0.015-0.203,0.089-0.311c0.019,0.048,0.049,0.094,0.055,0.144c0.086,0.701,0.169,1.402,0.251,2.104  c0.097,0.827,0.191,1.654,0.287,2.481c0.102,0.876,0.202,1.753,0.307,2.63c0.021,0.17,0.059,0.339,0.088,0.508  c-0.043,0.015-0.086,0.03-0.129,0.044C32.892,42.999,32.821,42.882,32.808,42.76z M31.262,35c-0.001,0-0.003,0-0.004,0  C32.612,35,34,35,35,35l0,0C34,35,32.615,35,31.262,35z M31.766,35.973c0.084,0.747,0.151,1.496,0.248,2.241  c0.154,1.19,0.329,2.379,0.491,3.568c0.052,0.381,0.103,0.763,0.135,1.146c0.02,0.229-0.141,0.275-0.334,0.269  c-0.696-0.024-1.393-0.05-2.089-0.064c-1.105-0.021-2.21-0.029-3.315-0.052c-0.325-0.006-0.403-0.127-0.273-0.428  c0.624-1.443,1.249-2.886,1.887-4.322c0.383-0.861,0.814-1.701,1.183-2.568c0.191-0.45,0.455-0.681,0.952-0.598  c0.058,0.009,0.119-0.004,0.179-0.007C31.797,35.162,31.661,35.05,31.766,35.973z M31.257,43c-0.519,1-1.055,0.389-1.593,0.317  c-0.137-0.018-0.273,0.029-0.41,0.029c-0.867-0.001-1.734,0.052-2.602,0.056c-0.063,0-0.127-0.174-0.191-0.182  C26.464,43.2,26.466,43,26.468,43C28.064,43,29.661,43,31.257,43z M46.377,44.292c-0.063-0.208,0.017-0.299,0.235-0.288  c0.633,0.032,1.267,0.069,1.9,0.086c0.857,0.022,1.715,0.016,2.573,0.043c1.632,0.053,3.263,0.126,4.895,0.181  c0.757,0.026,1.516,0.021,2.273,0.042c2.211,0.061,4.421,0.125,6.632,0.195c0.695,0.021,1.39,0.076,2.085,0.087  c0.345,0.006,0.578,0.086,0.824,0.38c0.416,0.497,0.476,1.087,0.69,1.717c-0.595,0-1.12,0.001-1.646-0.001  c-0.199,0-0.399-0.007-0.599-0.012c-1.61-0.041-3.221-0.079-4.83-0.125c-1.314-0.037-2.627-0.084-3.941-0.125  c-1.136-0.035-2.271-0.061-3.406-0.106c-0.233-0.009-0.464-0.085-0.695-0.135c-0.23-0.05-0.464-0.096-0.69-0.161  c-0.118-0.035-0.255-0.083-0.333-0.169c-0.554-0.612-1.547-0.684-2.198-0.174c-0.15,0.118-0.37,0.179-0.565,0.202  c-0.295,0.036-0.597,0.012-0.896,0.019c-0.205,0.004-0.421-0.031-0.558,0.197c-0.029,0.049-0.142,0.062-0.218,0.066  c-0.139,0.008-0.279,0.005-0.418-0.006c-0.559-0.042-0.555-0.045-0.709-0.579C46.652,45.181,46.511,44.737,46.377,44.292z   M65.979,53.116c0.028-0.002,0.057-0.003,0.085-0.005c-0.108-1.769-0.218-3.537-0.327-5.306c-0.005-0.08-0.011-0.159-0.016-0.239  c-0.032-0.517,0.02-0.646,0.281-0.662c0.664-0.038,0.951,0.112,1.002,0.601c0.056,0.535,0.107,1.07,0.148,1.606  c0.17,2.227,0.154,4.458,0.135,6.69c-0.002,0.295-0.146,0.384-0.398,0.397c-0.924,0.05-0.92,0.051-0.912-0.873  C65.984,54.59,65.979,53.853,65.979,53.116z M64.371,52.401c-0.055-1.64-0.161-3.279-0.243-4.918  c-0.01-0.187-0.002-0.374-0.002-0.598c0.354,0,0.671-0.008,0.986,0.007c0.066,0.003,0.172,0.083,0.187,0.145  c0.063,0.279,0.119,0.563,0.146,0.848c0.204,2.172,0.273,4.351,0.259,6.531c-0.004,0.448-0.011,0.896-0.025,1.345  c-0.012,0.357-0.095,0.432-0.448,0.434c-0.14,0.001-0.278-0.004-0.418-0.004c-0.406-0.001-0.439-0.026-0.439-0.442  C64.371,54.633,64.408,53.516,64.371,52.401z M49.993,46.705c-0.229,0.061-0.252-0.139-0.29-0.254  c-0.019-0.057,0.118-0.233,0.193-0.239c0.347-0.026,0.696-0.012,1.045-0.012c0.001-0.009,0.003-0.019,0.004-0.029  c0.682,0.073,1.365,0.139,2.045,0.227c0.091,0.012,0.166,0.135,0.249,0.207c-0.076,0.059-0.147,0.159-0.229,0.167  c-0.209,0.022-0.426,0.027-0.634-0.001C51.584,46.658,50.793,46.492,49.993,46.705z M51.987,47.084  c-0.063,0.064-0.114,0.149-0.189,0.188c-0.401,0.207-0.805,0.125-1.196-0.032c-0.104-0.042-0.179-0.156-0.267-0.236  c0.01-0.034,0.02-0.067,0.029-0.101c0.259-0.009,0.519-0.028,0.777-0.026c0.207,0.001,0.417,0.013,0.621,0.048  C51.844,46.94,51.913,47.029,51.987,47.084z M50.425,46c0.377,0,1.216,0,1.473,0C51.414,46,50.948,46,50.425,46z M49.43,46.427  c-0.004,0.229-0.159,0.209-0.311,0.206c-0.04-0.001-0.079,0-0.15,0c-0.106-0.009-0.253,0.005-0.379-0.04  c-0.092-0.033-0.156-0.144-0.232-0.219c0.074-0.051,0.143-0.132,0.224-0.146c0.174-0.032,0.354-0.033,0.532-0.04  C49.281,46.179,49.435,46.191,49.43,46.427z M47.597,46.439c0.185,0.043,0.451-0.056,0.541,0.259  c0.024,0.084,0.231,0.137,0.363,0.166c0.233,0.05,0.471,0.082,0.709,0.101c0.429,0.034,0.812,0.119,1.164,0.428  c0.409,0.359,1.366,0.293,1.776-0.077c0.295-0.267,0.663-0.138,0.984-0.254c0.224-0.081,0.432-0.113,0.365-0.442  c0.543,0,1.05-0.012,1.557,0.002c1.133,0.033,2.266,0.087,3.398,0.117c0.708,0.019,1.417-0.005,2.124,0.016  c0.975,0.029,1.948,0.078,2.921,0.134c0.078,0.005,0.207,0.126,0.214,0.201c0.12,1.428,0.238,2.856,0.328,4.287  c0.054,0.863,0.08,1.73,0.076,2.596c-0.004,0.825-0.059,1.65-0.1,2.476c-0.018,0.353-0.29,0.569-0.705,0.569  c-1.077-0.001-2.154,0.003-3.231-0.013c-1.764-0.027-3.527-0.069-5.292-0.103c-1.375-0.025-2.75-0.042-4.125-0.07  c-1.016-0.021-2.032-0.063-3.048-0.082c-0.265-0.005-0.342-0.121-0.336-0.369c0.035-1.703,0.088-3.407,0.078-5.11  c-0.005-0.974-0.113-1.948-0.186-2.922c-0.046-0.618-0.111-1.236-0.168-1.864C47.248,46.46,47.434,46.401,47.597,46.439z M47.382,57  C47.78,57,48,57,49,57c0,0,0,0.052,0,0.064c1,0.033,2.93,0.08,4.5,0.096c1.773,0.019,3.443-0.006,5.217,0.016  c0.892,0.011,1.729,0.096,2.62,0.12c0.775,0.021,1.526,0.023,2.302-0.007c0.302-0.012,0.585-0.132,0.702-0.476  c0.086-0.251,0.255-0.326,0.523-0.322c1.186,0.018,2.367,0.018,3.553,0.008c0.289-0.002,0.382,0.12,0.342,0.379  c-0.036,0.231-0.061,0.471-0.139,0.69c-0.117,0.331-0.47,0.319-0.72,0.337c-0.471,0.032-0.949-0.055-1.425-0.058  c-0.565-0.003-1.131,0.043-1.697,0.046c-0.264,0.001-0.528-0.068-0.793-0.07c-2.192-0.017-4.386-0.01-6.578-0.039  c-2.729-0.035-5.457-0.095-8.186-0.148c-0.627-0.012-1.254-0.037-1.882-0.06c-0.128-0.005-0.329,0.027-0.296-0.191  C47.07,57.213,47.135,57,47.382,57z M68.755,55.955c-0.006,0.182-0.099,0.243-0.267,0.241c-1.139-0.014-0.909,0.132-0.92-0.871  c-0.018-1.664,0.006-3.329-0.033-4.992c-0.021-0.891-0.14-1.779-0.213-2.669c-0.005-0.06-0.011-0.119-0.011-0.179  c-0.003-0.499,0.052-0.543,0.559-0.457c0.01,0.002,0.019,0.005,0.028,0.006c0.563,0.073,0.559,0.074,0.618,0.642  c0.095,0.898,0.195,1.795,0.328,3.007c0,0.707,0.012,1.721-0.003,2.735C68.829,54.264,68.782,55.109,68.755,55.955z M56.257,34.553  c0.33,0.085,0.698,0.124,0.972,0.302c1.448,0.944,2.874,1.923,4.304,2.896c1.511,1.028,3.029,2.045,4.521,3.1  c1.325,0.937,2.619,1.918,3.926,2.881c0.069,0.051,0.129,0.117,0.278,0.253c-0.427,0.086-0.778,0.128-1.111,0.231  c-0.641,0.198-1.05-0.163-1.491-0.526c-1.483-1.223-2.975-2.437-4.479-3.634c-0.881-0.702-1.787-1.374-2.691-2.046  c-1.434-1.064-2.876-2.117-4.312-3.179c-0.067-0.05-0.104-0.141-0.156-0.212C56.098,34.595,56.188,34.535,56.257,34.553z   M55.843,34.123c-0.493,0.173-0.823,0.074-0.978-0.299C55.229,33.935,55.536,34.029,55.843,34.123z M55.021,34.577  c0.527,0.105,0.895,0.487,1.31,0.783c0.756,0.538,1.503,1.088,2.248,1.64c0.689,0.511,1.37,1.032,2.057,1.546  c0.85,0.635,1.707,1.259,2.552,1.902c0.678,0.516,1.345,1.048,2.011,1.581c0.844,0.675,1.681,1.357,2.52,2.037  c0.042,0.034,0.075,0.079,0.138,0.145c-0.473,0.09-0.847,0.195-1.271-0.192c-0.891-0.814-1.866-1.535-2.801-2.302  c-0.125-0.103-0.202-0.261-0.318-0.376c-0.221-0.217-0.421-0.492-0.688-0.619c-0.724-0.344-1.299-0.883-1.921-1.358  c-1.688-1.288-3.358-2.598-5.039-3.895c-0.345-0.267-0.706-0.513-1.06-0.769c-0.003-0.027-0.007-0.053-0.011-0.08  C54.839,34.603,54.937,34.56,55.021,34.577z M57.886,37.352c1.036,0.791,2.055,1.606,3.076,2.416  c0.108,0.086,0.186,0.211,0.277,0.318c-0.023,0.031-0.046,0.062-0.068,0.093c-0.262-0.135-0.552-0.235-0.781-0.412  c-0.953-0.738-1.881-1.509-2.834-2.248c-0.835-0.649-1.68-1.288-2.542-1.902c-0.827-0.589-1.725-0.976-2.786-0.873  c-0.523,0.05-1.056,0.01-1.584,0.006c-0.102-0.001-0.204-0.025-0.306-0.039c-0.004-0.029-0.008-0.058-0.013-0.086  c0.062-0.024,0.123-0.069,0.185-0.07c1.117-0.007,2.234-0.03,3.349,0.004c0.249,0.008,0.516,0.192,0.733,0.35  C55.698,35.712,56.799,36.522,57.886,37.352z M24.999,33.841c0.001,0,0.002-0.004,0.003,0.005c-0.5,0.03-1,0.071-1.5,0.101  c-0.001-0.04-0.002-0.106-0.003-0.106C23.999,33.841,24.499,33.841,24.999,33.841z M23.704,33.053  c0.103,0.012,0.195,0.105,0.292,0.164c-0.086,0.057-0.172,0.113-0.298,0.196c-0.096-0.088-0.168-0.155-0.242-0.222  C23.539,33.142,23.627,33.044,23.704,33.053z M13.995,35.095c0.572-0.115,1.145-0.227,1.718-0.336  c0.543-0.104,1.086-0.218,1.633-0.3c0.422-0.063,0.851-0.085,1.277-0.122c0.047-0.004,0.116,0.001,0.143,0.031  c0.349,0.386,0.774,0.196,1.175,0.158c0.524-0.048,1.046-0.126,1.571-0.171c0.643-0.055,1.288-0.09,1.932-0.132  c1.922-0.124,3.844-0.263,5.767-0.366c1.552-0.083,3.105-0.14,4.659-0.176c2.31-0.053,4.619-0.096,6.929-0.108  c2.602-0.013,5.205,0.004,7.807,0.03c0.753,0.007,1.504,0.101,2.257,0.136c0.567,0.026,1.137,0.058,1.702,0.021  c0.545-0.036,1.041,0.094,1.559,0.358c-0.124,0.032-0.247,0.088-0.371,0.092c-0.488,0.016-0.978,0.019-1.466,0.019  c-2.832,0.001-5.664-0.001-8.496,0.001c-1.635,0.002-3.27-0.006-4.905,0.023c-2.28,0.041-4.56,0.113-6.839,0.169  c-1.622,0.041-3.244,0.073-4.865,0.12c-1.083,0.031-2.167,0.081-3.25,0.121c-0.973,0.036-1.947,0.07-2.92,0.109  c-0.882,0.035-1.764,0.067-2.646,0.113c-0.703,0.038-1.406,0.084-2.107,0.146c-0.888,0.078-1.775,0.177-2.662,0.264  c-0.065,0.006-0.131-0.007-0.205-0.064C13.592,35.187,13.792,35.135,13.995,35.095z M13.111,35.722  c0.43-0.044,0.83-0.087,1.23-0.116c0.022-0.002,0.093,0.155,0.074,0.174c-0.188,0.197-0.381,0.392-0.595,0.559  c-0.044,0.035-0.208-0.019-0.269-0.08C13.402,36.109,13.28,35.932,13.111,35.722z M8.862,42.792c1.345-1.584,2.684-3.173,4.048-4.74  c0.715-0.821,1.471-1.607,2.222-2.396c0.269-0.283,0.639-0.203,1-0.22c-0.031,0.296,0.113,0.331,0.355,0.308  c0.51-0.049,1.022-0.063,1.534-0.092c0.015,0.03,0.03,0.061,0.044,0.091c-0.374,0.472-0.75,0.942-1.122,1.416  c-0.703,0.894-1.406,1.788-2.105,2.685c-0.592,0.759-1.18,1.521-1.765,2.286c-0.201,0.263-0.374,0.549-0.588,0.801  c-0.099,0.117-0.265,0.247-0.402,0.25c-1.077,0.021-2.154,0.012-3.231,0.011c-0.047,0-0.094-0.015-0.193-0.031  C8.735,43.021,8.779,42.89,8.862,42.792z M11.738,43.426c-0.099,0.005-0.198,0.015-0.297,0.015  c-0.438,0.001-0.877-0.014-1.314,0.004c-0.423,0.017-0.845,0.07-1.267,0.101c-0.093,0.007-0.187-0.01-0.354-0.02  C8.715,43.339,11.029,43.278,11.738,43.426z M7.167,44.188c0.105-0.239,0.31-0.324,0.579-0.325c3.07-0.003,6.141,0.069,9.211,0.062  C19.6,43.919,22.242,44,24.884,44c0.286,0,0.572,0,0.811,0c-0.021,0-0.055,0.991-0.05,1.492c0.004,0.375-0.042,0.403-0.442,0.402  c-2.741-0.007-5.483-0.038-8.225-0.043c-1.705-0.003-3.409-0.008-5.114-0.017c-1.335-0.007-2.67-0.037-4.006-0.051  c-0.305-0.003-0.611,0.001-0.916,0.009c-0.304,0.007-0.377-0.09-0.266-0.379C6.833,45.002,6.99,44.59,7.167,44.188z M6.784,44.023  c0.038,0.014,0.076,0.027,0.115,0.041c-0.14,0.368-0.28,0.735-0.42,1.103c-0.035-0.012-0.069-0.025-0.104-0.038  C6.38,44.716,6.625,44.384,6.784,44.023z M7.08,45.987c1.007,0.007,2.015-0.011,3.021,0.006c0.625,0.01,1.249,0.065,1.874,0.102  c0.036,0.002,0.072,0.017,0.096,0.022c-0.329,0.935-1.121,0.968-1.914,1.036c-0.376,0.032-0.751,0.124-1.115,0.23  c-0.317,0.093-0.46,0.371-0.474,0.681c-0.023,0.518-0.022,1.037-0.013,1.554c0.017,0.917,0.044,1.834,0.076,2.75  c0.007,0.22-0.069,0.321-0.294,0.287c-0.556-0.086-1.113-0.16-1.665-0.268c-0.09-0.018-0.205-0.176-0.216-0.279  c-0.058-0.502-0.112-1.007-0.117-1.511c-0.013-1.266,0.013-2.533-0.005-3.798C6.329,46.422,6.606,45.984,7.08,45.987z   M16.749,60.192c-0.004,0.148,0.007,0.298-0.288,0.247c-0.317-0.087-0.709-0.19-1.098-0.303c-0.531-0.153-1.06-0.314-1.589-0.472  c-0.984-0.293-1.967-0.588-2.952-0.878c-0.806-0.236-1.618-0.456-2.421-0.702c-0.808-0.246-1.621-0.494-2.336-0.961  c-0.38-0.247-0.407-0.697-0.498-1.095c-0.007-0.031,0.166-0.157,0.235-0.143c0.717,0.149,1.429,0.318,2.143,0.483  c0.826,0.192,1.65,0.394,2.478,0.576c0.566,0.126,1.14,0.217,1.706,0.343c0.59,0.132,1.174,0.29,1.762,0.433  c0.306,0.074,0.613,0.143,0.919,0.212c0.599,0.134,1.2,0.26,1.794,0.409c0.081,0.021,0.187,0.158,0.187,0.242  C16.791,59.12,16.763,59.656,16.749,60.192z M17.786,55.575c-0.371,0.738-0.678,1.501-0.839,2.317  c-0.015,0.075-0.18,0.179-0.267,0.171c-0.285-0.024-0.567-0.085-0.847-0.147c-0.695-0.154-1.387-0.32-2.082-0.477  c-1.013-0.228-2.026-0.451-3.039-0.678c-1.196-0.267-2.392-0.537-3.589-0.802c-0.431-0.096-0.865-0.181-1.298-0.27  c-0.251-0.052-0.394-0.221-0.386-0.46c0.012-0.376,0.051-0.755,0.12-1.124c0.017-0.09,0.187-0.196,0.299-0.213  c0.245-0.035,0.498-0.007,0.745-0.026c0.272-0.021,0.293-0.101,0.188-0.344c-0.111-0.256-0.182-0.529-0.27-0.796  c0.032-0.034,0.065-0.069,0.098-0.104c0.624,0.095,1.248,0.185,1.869,0.291c0.072,0.013,0.165,0.104,0.186,0.177  c0.138,0.464,0.512,0.644,0.922,0.74c0.51,0.119,1.032,0.186,1.549,0.278c0.652,0.118,1.304,0.238,1.956,0.361  c0.467,0.088,0.932,0.188,1.4,0.271c0.839,0.149,1.68,0.29,2.52,0.435c0.2,0.034,0.398,0.078,0.599,0.105  C17.813,55.309,17.888,55.372,17.786,55.575z M17.62,55.036c-0.488-0.088-0.976-0.177-1.463-0.266  c-0.876-0.161-1.75-0.327-2.627-0.481c-0.654-0.115-1.314-0.201-1.966-0.329c-0.755-0.147-1.507-0.318-2.255-0.501  C9.098,53.408,8.966,53.24,8.957,53c-0.056-1.529-0.121-3.059-0.168-4.588c-0.025-0.795,0.304-0.877,0.875-0.995  c0.27-0.056,0.556-0.031,0.835-0.038c0.688-0.018,1.254-0.25,1.679-0.831c0.225-0.308,0.52-0.493,0.982-0.487  c2.673,0.034,5.346,0.016,8.02,0.017c1.386,0.001,2.772,0.006,4.159,0.01c0.107,0,0.215,0.009,0.335,0.015  c0.306,1.297,0.608,2.575,0.908,3.853c0.055,0.235,0.105,0.472,0.157,0.709c0.063,0.292-0.02,0.364-0.319,0.344  c-0.946-0.062-1.88-0.011-2.817,0.186c-1.573,0.33-2.902,1.103-4.074,2.155c-0.465,0.418-0.849,0.934-1.221,1.441  C18.109,55.062,17.895,55.086,17.62,55.036z M25.595,67.086c-3.895,0-7.063-3.168-7.063-7.063c0-3.894,3.168-7.063,7.063-7.063  c3.894,0,7.062,3.169,7.062,7.063C32.657,63.918,29.489,67.086,25.595,67.086z M33.585,56.18c-0.488-1.063-1.123-2.034-1.976-2.842  c-0.926-0.877-2.008-1.517-3.211-1.939c-0.36-0.127-0.744-0.183-1.11-0.294c-0.098-0.03-0.216-0.13-0.246-0.223  c-0.116-0.369-0.208-0.747-0.296-1.124c-0.146-0.626-0.293-1.252-0.418-1.883c-0.1-0.5-0.167-1.06-0.251-1.563  C26.065,46.236,26.043,46,26.018,46c0.688,0,1.342,0,2.013,0c0.014,1,0.313,0.504,0.601,0.543c0.402,0.055,0.807,0.11,1.21,0.159  c0.071,0.009,0.146,0.065,0.203,0.112c0.677,0.563,1.473,0.589,2.178,0.074c0.118-0.086,0.286-0.103,0.431-0.15  c0.027-0.009,0.06,0,0.089-0.001c0.551-0.021,0.619-0.067,0.771-0.507c1.338,0,2.662-0.003,3.985,0.001  c1.256,0.004,2.513,0.003,3.769,0.029c1.331,0.028,2.662,0.09,3.993,0.131c0.378,0.012,0.758-0.01,1.136,0.012  c0.103,0.006,0.263,0.096,0.288,0.18c0.093,0.313,0.174,0.636,0.2,0.959c0.071,0.911,0.133,1.823,0.162,2.736  c0.043,1.353,0.069,2.707,0.074,4.06c0.002,0.704-0.063,1.408-0.082,2.112c-0.006,0.223-0.096,0.301-0.306,0.295  c-0.458-0.015-0.917-0.022-1.375-0.03c-1.833-0.031-3.667-0.063-5.5-0.092c-0.957-0.016-1.915-0.015-2.871-0.034  c-0.833-0.017-1.667-0.054-2.5-0.081c-0.069-0.002-0.142-0.009-0.208,0.007C33.799,56.627,33.778,56.601,33.585,56.18z   M33.985,57.045c-0.001-0.049,0.146-0.141,0.228-0.142c1.273-0.024,2.547-0.046,3.82-0.047c0.876-0.001,1.756-0.012,2.626,0.064  c0.648,0.058,1.286,0.03,1.932,0.025c1.338-0.012,2.678,0.055,4.017,0.09c0.038,0.001,0.076,0.019,0.115,0.029  c0.021,0.081,0.044,0.156,0.06,0.232c0.035,0.173-0.024,0.267-0.215,0.265c-1.543-0.021-3.087-0.035-4.631-0.059  c-0.397-0.006-0.793-0.047-1.19-0.052c-2.021-0.024-4.043-0.04-6.065-0.065c-0.186-0.002-0.379-0.025-0.554-0.084  C34.055,57.277,33.986,57.135,33.985,57.045z M46.652,60.427C46.655,60.989,46.66,61,46.088,61c-1.874,0-3.747,0-5.62,0  c-1.933,0-3.866-0.016-5.799-0.004c-0.246,0.001-0.313-0.079-0.301-0.309c0.017-0.308,0.013-0.619,0.009-0.928  c-0.003-0.232,0.105-0.315,0.331-0.313c2.29,0.037,4.579,0.074,6.869,0.101c1.395,0.016,2.789,0.003,4.183,0.028  C46.75,59.594,46.647,59.567,46.652,60.427z M46.794,58.122c-0.028,0.258-0.041,0.518-0.034,0.776  c0.006,0.269-0.097,0.366-0.371,0.362c-1.046-0.017-2.093-0.016-3.139-0.019c-1.864-0.007-3.729-0.004-5.593-0.021  c-1.014-0.01-2.027-0.06-3.04-0.082c-0.236-0.005-0.311-0.146-0.339-0.336c-0.053-0.353-0.097-0.707-0.153-1.126  c0.118-0.018,0.242-0.052,0.365-0.051c2.321,0.021,4.643,0.04,6.964,0.075c1.683,0.025,3.366,0.077,5.05,0.105  C46.744,57.811,46.819,57.889,46.794,58.122z M68.35,60.432c-0.022,0.69-0.112,0.791-0.79,0.791  c-1.007,0.001-2.014-0.011-3.021-0.023c-2.868-0.037-5.737-0.08-8.606-0.116c-2.939-0.037-5.826-0.069-8.765-0.104  C47.107,60.979,47,60.972,47,60.965c0-0.395,0-0.762,0-1.129c0-0.186,0.028-0.259,0.223-0.256c1.883,0.031,3.74,0.056,5.623,0.078  c1.018,0.012,2.021,0.016,3.039,0.025c4.018,0.04,8.028,0.081,12.045,0.124c0.371,0.004,0.425,0.07,0.424,0.444  C68.354,60.313,68.352,60.372,68.35,60.432z M68.098,59.52c-1.564-0.02-3.13-0.026-4.694-0.042  c-3.678-0.039-7.355-0.077-11.033-0.124c-1.694-0.021-3.387-0.065-5.081-0.093c-0.196-0.003-0.294-0.05-0.279-0.271  c0.021-0.317,0.021-0.637,0.019-0.955c-0.001-0.169,0.068-0.229,0.23-0.229c1.266,0.011,2.531,0.008,3.797,0.029  c0.973,0.018,1.945,0.082,2.918,0.095c1.466,0.02,2.933-0.004,4.397,0.019c2.898,0.044,5.797,0.108,8.695,0.161  c0.456,0.009,0.913,0.001,1.448,0.001c-0.026,0.384-0.042,0.769-0.082,1.15C68.414,59.44,68.296,59.522,68.098,59.52z M71.853,61.32  c-1.051-0.03-2.101-0.061-3.15-0.107c-0.069-0.004-0.194-0.146-0.189-0.218c0.021-0.324,0.058-0.651,0.135-0.967  c0.023-0.094,0.417-0.194,0.53-0.216c0.193-0.035-0.178-0.01,0.822-0.01C70,59.832,70,60,70,60s1.093,0,1.865,0  c0.177,0,0.291,0.012,0.294,0.201c0.004,0.289,0.001,0.551,0.003,0.839C72.164,61.25,72.054,61.326,71.853,61.32z M72.669,56.852  c-0.3,0.784-0.483,1.592-0.493,2.432c-0.002,0.207-0.105,0.257-0.276,0.256c-0.996-0.006-1.992-0.014-2.987-0.017  c-0.204-0.001-0.296-0.088-0.268-0.292c0.072-0.516,0.143-1.032,0.22-1.548c0.041-0.273,0.117-0.544,0.139-0.818  c0.022-0.278,0.185-0.382,0.46-0.375C69.961,56.503,70,56.493,71,56.493c0,0.001,0,0.002,0,0.003c0,0,0.953-0.002,1.451,0  C72.708,56.497,72.758,56.618,72.669,56.852z M73.121,55.712c-0.259,0.526-0.259,0.515-0.841,0.452  c-0.214-0.023-0.434,0.028-0.651,0.03c-0.738,0.003-1.477-0.013-2.214,0.004c-0.274,0.006-0.36-0.113-0.352-0.352  c0.017-0.408,0.047-0.816,0.06-1.225c0.06-1.984,0.042-3.968-0.153-5.946c-0.033-0.336-0.093-0.669-0.121-1.005  c-0.015-0.168-0.001-0.343,0.033-0.507c0.011-0.052,0.127-0.112,0.198-0.116c0.248-0.014,0.498-0.005,0.747-0.005  c1.015,0.042,2.03,0.086,3.046,0.126c1.132,0.044,2.265,0.086,3.397,0.125c1.172,0.041,2.344,0.077,3.516,0.118  c0.616,0.022,1.232,0.058,1.849,0.077c1,0.03,2.001,0.049,3.001,0.078c0.318,0.009,0.469,0.271,0.661,0.465  c0.041,0.042,0.066,0.098,0.106,0.141c0.449,0.47,0.459,0.474,0.193,1.045c-0.228,0.488-0.48,0.964-0.72,1.447  c-0.095,0.19-0.138,0.48-0.285,0.549c-0.153,0.071-0.41-0.058-0.613-0.122c-0.977-0.307-1.971-0.439-2.998-0.432  c-1.001,0.007-1.947,0.192-2.883,0.531c-1.096,0.396-2.055,0.991-2.916,1.771C74.313,53.747,73.636,54.666,73.121,55.712z   M80.956,67.087c-3.895,0-7.063-3.168-7.063-7.062c0-3.895,3.168-7.063,7.063-7.063c3.894,0,7.062,3.168,7.062,7.063  C88.018,63.919,84.85,67.087,80.956,67.087z M92.24,60.161c-0.64,0.258-1.284,0.502-1.925,0.759  c-0.266,0.107-0.451,0.024-0.487-0.271c-0.03-0.246-0.026-0.499-0.004-0.745c0.007-0.075,0.125-0.197,0.195-0.199  c0.997-0.029,1.993-0.042,2.99-0.056c0.033-0.001,0.066,0.027,0.193,0.083C92.834,59.897,92.541,60.04,92.24,60.161z M93.129,56.336  c-0.005-0.079-0.001-0.159-0.001-0.238c0.002-0.382,0.104-0.451,0.457-0.354c-0.043,0.209-0.072,0.418-0.131,0.618  c-0.028,0.096-0.104,0.243-0.17,0.251C93.08,56.635,93.137,56.455,93.129,56.336z M93.163,54.662  c0.186-0.018,0.375-0.025,0.561-0.007c0.075,0.008,0.143,0.093,0.213,0.143c-0.02,0.039-0.04,0.077-0.06,0.116  c-0.234,0-0.468,0.008-0.701-0.006c-0.059-0.004-0.113-0.078-0.169-0.12C93.059,54.744,93.107,54.668,93.163,54.662z M92.851,53  c0.256,0,0.546,0,0.675,0C93.309,53,93.104,53,92.851,53z M94.071,56.181c-0.032,0.071-0.051,0.154-0.101,0.21  c-0.075,0.083-0.172,0.146-0.312,0.26c0-0.178-0.022-0.293,0.009-0.391c0.021-0.069,0.111-0.146,0.183-0.162  C93.916,56.085,93.997,56.15,94.071,56.181z M93.595,57.589c0.074-0.023,0.161-0.051,0.232-0.033  c0.087,0.021,0.164,0.087,0.246,0.133c-0.069,0.078-0.112,0.17-0.195,0.227c-0.048,0.032-0.128,0.006-0.188,0.006  c0,0.002,0,0.003,0,0.005c0,0-0.036,0.001-0.046,0c-0.154-0.021-0.381,0.056-0.394-0.191C93.249,57.691,93.47,57.631,93.595,57.589z   M94.021,53.056c-0.019-0.198-0.157-0.266-0.336-0.266c-0.289,0.001-0.578,0-0.867,0.012c-0.246,0.01-0.403,0.132-0.375,0.396  c0.044,0.402,0.104,0.804,0.16,1.205c0.017,0.116,0.054,0.231,0.062,0.349c0.02,0.293,0.195,0.469,0.59,0.582  c-0.121,0.098-0.301,0.177-0.361,0.311c-0.069,0.15-0.037,0.351-0.04,0.529c-0.006,0.479-0.008,0.957-0.008,1.436  c-0.001,0.385,0.146,0.551,0.528,0.578c0.178,0.013,0.357-0.002,0.536-0.002c0.233-0.001,0.315,0.113,0.211,0.323  c-0.106,0.212-0.23,0.416-0.366,0.61c-0.044,0.063-0.146,0.109-0.226,0.117c-0.532,0.052-1.064,0.11-1.598,0.131  c-0.627,0.023-1.255,0.003-1.882,0.019c-0.225,0.006-0.316-0.103-0.323-0.294c-0.021-0.607-0.1-1.202-0.251-1.796  c-0.195-0.771-0.469-1.506-0.84-2.206c-0.687-1.296-1.645-2.344-2.882-3.132c-0.216-0.138-0.433-0.273-0.658-0.394  c-0.222-0.118-0.171-0.29-0.1-0.453c0.147-0.335,0.317-0.661,0.469-0.994c0.18-0.392,0.334-0.796,0.537-1.176  c0.041-0.078,0.256-0.107,0.38-0.088c0.518,0.079,1.03,0.188,1.546,0.28c0.499,0.088,0.944,0.26,1.251,0.697  c0.18,0.256,0.379,0.499,0.568,0.749c0.342,0.453,0.833,0.556,1.353,0.537c0.726-0.025,1.451-0.08,2.176-0.133  c0.349-0.026,0.568,0.098,0.673,0.415c0.108,0.33,0.24,0.653,0.321,0.99c0.07,0.291,0.084,0.596,0.124,0.914  C94.172,53.338,94.042,53.281,94.021,53.056z M94.446,55.038c-0.055-0.011-0.109-0.021-0.164-0.03  c0.014-0.113,0.026-0.226,0.039-0.338c0.068,0.015,0.137,0.028,0.205,0.043C94.5,54.821,94.473,54.93,94.446,55.038z"/><text x="0" y="115" fill="#000000" font-size="5px" font-weight="bold" font-family="'Helvetica Neue', Helvetica, Arial-Unicode, Arial, Sans-serif">Created by Sherrinford</text><text x="0" y="120" fill="#000000" font-size="5px" font-weight="bold" font-family="'Helvetica Neue', Helvetica, Arial-Unicode, Arial, Sans-serif">from the Noun Project</text></svg>